<?xml version="1.0" encoding="UTF-8"?>
<svg version="1.1" xmlns="http://www.w3.org/2000/svg" width="1090" height="1310">
<path d="M0 0 C359.7 0 719.4 0 1090 0 C1090 432.3 1090 864.6 1090 1310 C730.3 1310 370.6 1310 0 1310 C0 877.7 0 445.4 0 0 Z " fill="#3B2A21" transform="translate(0,0)"/>
<path d="M0 0 C1.37535339 1.97133986 2.70211044 3.97681922 4 6 C5.6454378 7.68762851 7.31288577 9.3540349 9 11 C14 16.25956284 14 16.25956284 14 21 C14.66 21 15.32 21 16 21 C34 51.88324873 34 51.88324873 34 63 C34.66 63 35.32 63 36 63 C43.32605668 85.15831899 45.36175973 107.98563779 45.4375 131.1875 C45.4436734 131.9978772 45.4498468 132.80825439 45.45620728 133.64318848 C45.49668051 141.87044465 45.29798475 149.53212928 42.7644043 157.44458008 C41.36943745 162.1079841 40.8772117 166.94151247 40.1875 171.75 C38.65134266 181.66076621 36.13287067 189.89277212 32 199 C31.08999016 201.36960428 30.19358141 203.74448789 29.3125 206.125 C27.86069902 210.04635936 26.19238148 213.4439925 24 217 C23.42970248 218.21614728 22.88348033 219.44423767 22.375 220.6875 C21.63134744 222.47902663 20.86747759 224.26504483 20 226 C19.34 226 18.68 226 18 226 C17.63261719 227.30710937 17.63261719 227.30710937 17.2578125 228.640625 C15.90358629 232.25750245 14.23693392 234.70499809 11.875 237.75 C10.67810547 239.296875 10.67810547 239.296875 9.45703125 240.875 C8.64621094 241.90625 7.83539062 242.9375 7 244 C6.24074219 244.99 5.48148438 245.98 4.69921875 247 C0.64958229 252.21196356 0.64958229 252.21196356 -1 254 C-1.66 254 -2.32 254 -3 254 C-21.70476379 234.26706738 -34.64556832 208.04245498 -41.35302734 181.8996582 C-42.23707494 178.48602034 -43.02509415 175.96235877 -45 173 C-53.0855397 139.48520539 -52.41504137 97.13539647 -40 65 C-39.67128906 64.13761719 -39.34257812 63.27523437 -39.00390625 62.38671875 C-38.38455101 60.81648616 -37.74949667 59.25234023 -37.09765625 57.6953125 C-36.20892614 55.51302148 -35.37163947 53.32803626 -34.55859375 51.1171875 C-34.30134521 50.41851562 -34.04409668 49.71984375 -33.77905273 49 C-33.27638113 47.62887694 -32.77695189 46.25655876 -32.28149414 44.8828125 C-27.0794217 30.75154612 -18.83722759 17.89036237 -9.0625 6.5 C-8.22924194 5.52051392 -8.22924194 5.52051392 -7.37915039 4.52124023 C-3.38088715 0 -3.38088715 0 0 0 Z " fill="#3B2B22" transform="translate(540,409)"/>
<path d="M0 0 C8.58791991 3.555632 14.23187904 13.40120036 19 21 C19.93392578 22.38445313 19.93392578 22.38445313 20.88671875 23.796875 C21.52222656 24.75078125 22.15773438 25.7046875 22.8125 26.6875 C23.39644531 27.55761719 23.98039063 28.42773438 24.58203125 29.32421875 C26.13431402 32.25345758 26.63058824 34.72326969 27 38 C28.485 38.495 28.485 38.495 30 39 C31.13430583 41.66315282 32.08556359 44.26106606 33 47 C33.66218064 48.83495841 34.3290335 50.66823595 35 52.5 C35.4640625 53.78390625 35.4640625 53.78390625 35.9375 55.09375 C36.74379767 57.29921128 37.59583948 59.48801402 38.46875 61.66796875 C41.41542624 69.52885695 42.76256743 77.92342301 44.41552734 86.12988281 C44.91451233 88.58020343 45.44734356 91.0196964 45.98828125 93.4609375 C50.74471019 116.6751102 49.74427467 143.10496239 44 166 C43.71125 167.2478125 43.4225 168.495625 43.125 169.78125 C42.37529487 172.80684571 41.55710245 175.79590404 40.66308594 178.78173828 C40.16772601 180.43889598 39.68314243 182.09928193 39.20410156 183.76123047 C35.17180862 197.66484386 30.43176491 210.39670167 23.17871094 222.94091797 C22.08034762 224.8596413 21.03569642 226.79675266 20.0078125 228.75390625 C16.39956662 235.45386488 12.34844237 241.42112832 7.625 247.375 C7.1005127 248.03661133 6.57602539 248.69822266 6.03564453 249.37988281 C4.74158676 250.96315088 3.37655421 252.48790814 2 254 C1.34 254 0.68 254 0 254 C-1.7637075 252.040325 -3.38967324 250.08136532 -5 248 C-5.48839355 247.36989014 -5.97678711 246.73978027 -6.47998047 246.09057617 C-15.77711941 233.88601745 -22.81961718 220.913638 -29.10546875 206.94433594 C-29.9858346 204.96519157 -29.9858346 204.96519157 -31.11328125 203.00097656 C-32 201 -32 201 -32 197 C-32.66 197 -33.32 197 -34 197 C-34.67286212 194.58490559 -35.33846012 192.16819644 -36 189.75 C-36.19078125 189.06808594 -36.3815625 188.38617187 -36.578125 187.68359375 C-37.49957044 184.29399088 -38 181.54221024 -38 178 C-38.66 178 -39.32 178 -40 178 C-40.65176423 174.68863914 -41.29529828 171.37572755 -41.9375 168.0625 C-42.11990234 167.13630859 -42.30230469 166.21011719 -42.49023438 165.25585938 C-42.66748047 164.33740234 -42.84472656 163.41894531 -43.02734375 162.47265625 C-43.18968506 161.64000244 -43.35202637 160.80734863 -43.51928711 159.94946289 C-44.73625868 152.48260987 -45.16803777 145.13850945 -45.203125 137.578125 C-45.20882507 136.59745056 -45.21452515 135.61677612 -45.22039795 134.60638428 C-45.22979804 132.53561462 -45.23636193 130.46483034 -45.24023438 128.39404297 C-45.24984416 125.30017199 -45.28087604 122.20699416 -45.3125 119.11328125 C-45.36620745 109.16069481 -45.05949084 99.41257406 -43.671875 89.546875 C-43.55515442 88.7143219 -43.43843384 87.8817688 -43.31817627 87.02398682 C-42.44189748 81.44760288 -40.88679471 76.30917003 -39 71 C-38.56634039 69.63618825 -38.13828238 68.27056732 -37.71875 66.90234375 C-37.51813965 66.24999756 -37.3175293 65.59765137 -37.11083984 64.92553711 C-36.9092627 64.26948486 -36.70768555 63.61343262 -36.5 62.9375 C-34.82895797 57.55185259 -33.09478042 52.23695105 -31 47 C-30.2884375 45.205625 -30.2884375 45.205625 -29.5625 43.375 C-27.98912752 39.97651545 -26.07376374 37.11064562 -24 34 C-23.31861746 32.34521383 -22.63731582 30.6903941 -21.95703125 29.03515625 C-16.79771347 18.06370905 -8.60124911 8.42017018 0 0 Z " fill="#3B2B22" transform="translate(537,748)"/>
<path d="M0 0 C0.67033264 -0.00358521 1.34066528 -0.00717041 2.03131104 -0.01086426 C15.25685464 -0.04886986 28.14944681 0.90015376 40.6875 5.3125 C45.30994012 6.88975153 49.83434283 8.3678605 54.625 9.34765625 C57.83342179 10.02366423 60.24136122 10.80950549 62.9375 12.75 C65.40209604 14.42379062 67.38466343 15.54560362 70.1875 16.6875 C74.30471342 18.5331474 77.65779195 20.89636002 81.30078125 23.53515625 C84.24568485 25.6190305 87.29364218 27.46264754 90.4140625 29.26953125 C91.10628906 29.78580078 91.10628906 29.78580078 91.8125 30.3125 C91.8125 30.9725 91.8125 31.6325 91.8125 32.3125 C93.02486328 32.58513672 93.02486328 32.58513672 94.26171875 32.86328125 C95.86466797 33.24033203 95.86466797 33.24033203 97.5 33.625 C98.55574219 33.86863281 99.61148438 34.11226562 100.69921875 34.36328125 C103.82763836 35.31711558 106.16794992 36.39615936 108.8125 38.3125 C109.625 41 109.625 41 109.8125 43.3125 C106.32362278 45.97506419 103.59502839 47.45520388 99.3125 48.4375 C92.93983143 50.15879743 88.19764799 54.01993302 83.01171875 57.9375 C75.77138158 63.3125 75.77138158 63.3125 72.8125 63.3125 C72.8125 63.9725 72.8125 64.6325 72.8125 65.3125 C67.37611131 67.71462523 61.86496656 69.88899222 56.3046875 71.98828125 C54.07094278 72.83530526 51.84579517 73.70559496 49.6328125 74.60546875 C33.85884473 80.75239864 17.77081992 82.68210207 0.9375 82.6875 C-0.97869141 82.69003784 -0.97869141 82.69003784 -2.93359375 82.69262695 C-9.40769376 82.61496178 -14.97978602 82.09270157 -21.1875 80.3125 C-23.44840592 79.93416088 -25.71328424 79.63063117 -27.98510742 79.32543945 C-43.14047964 77.26168308 -55.75352342 71.31146361 -69.1875 64.3125 C-70.10144531 63.84585938 -71.01539063 63.37921875 -71.95703125 62.8984375 C-75.58868153 60.9805302 -78.68609552 58.99246807 -81.75 56.25 C-88.25600147 50.48669276 -93.87203859 48.87485851 -102.55078125 48.5859375 C-105.1875 48.3125 -105.1875 48.3125 -108.1875 46.3125 C-109 42.875 -109 42.875 -109.1875 39.3125 C-108.5275 38.3225 -107.8675 37.3325 -107.1875 36.3125 C-104.43038731 35.76748935 -101.84597454 35.38700235 -99.0625 35.125 C-98.30839844 35.04314453 -97.55429687 34.96128906 -96.77734375 34.87695312 C-94.91533393 34.6766103 -93.05154189 34.49295964 -91.1875 34.3125 C-91.1875 33.6525 -91.1875 32.9925 -91.1875 32.3125 C-89.7109375 31.12109375 -89.7109375 31.12109375 -87.5625 29.75 C-86.34240234 28.96496094 -86.34240234 28.96496094 -85.09765625 28.1640625 C-84.13730469 27.55304687 -83.17695313 26.94203125 -82.1875 26.3125 C-81.01871524 25.55072971 -79.85079013 24.78763931 -78.68359375 24.0234375 C-77.45595921 23.22360514 -76.22809497 22.42412521 -75 21.625 C-74.41847168 21.244646 -73.83694336 20.86429199 -73.23779297 20.47241211 C-63.69487828 14.3125 -63.69487828 14.3125 -58.1875 14.3125 C-58.1875 13.6525 -58.1875 12.9925 -58.1875 12.3125 C-56.8675 12.3125 -55.5475 12.3125 -54.1875 12.3125 C-54.1875 11.6525 -54.1875 10.9925 -54.1875 10.3125 C-53.27871094 10.05726563 -53.27871094 10.05726563 -52.3515625 9.796875 C-47.98560338 8.53410529 -43.82925467 7.18855612 -39.6875 5.3125 C-26.94632013 0.24719913 -13.52151039 0.02901864 0 0 Z " fill="#3D2D24" transform="translate(369.1875,663.6875)"/>
<path d="M0 0 C2.21168659 0.00315435 4.42202304 -0.02036433 6.63354492 -0.0456543 C15.94250187 -0.08661231 24.33901838 1.06774945 33.4128418 3.31567383 C34.96200996 3.6236858 36.51382208 3.91902705 38.0690918 4.19458008 C39.3375293 4.42016602 40.6059668 4.64575195 41.9128418 4.87817383 C43.2019043 5.10633789 44.4909668 5.33450195 45.8190918 5.56958008 C49.13845863 6.2587095 52.2261233 7.16983215 55.4128418 8.31567383 C55.4128418 8.97567383 55.4128418 9.63567383 55.4128418 10.31567383 C56.12569336 10.49743164 56.83854492 10.67918945 57.57299805 10.86645508 C63.08661638 12.31350161 68.24622822 13.90458749 73.4128418 16.31567383 C73.4128418 16.97567383 73.4128418 17.63567383 73.4128418 18.31567383 C74.13084961 18.57864258 74.84885742 18.84161133 75.58862305 19.11254883 C78.50118441 20.35330803 80.95503167 21.83078802 83.6003418 23.56567383 C88.18953263 26.55238906 92.85066639 29.35114191 97.61206055 32.05395508 C98.20631836 32.47032227 98.80057617 32.88668945 99.4128418 33.31567383 C99.4128418 33.97567383 99.4128418 34.63567383 99.4128418 35.31567383 C104.0328418 35.31567383 108.6528418 35.31567383 113.4128418 35.31567383 C113.4128418 39.27567383 113.4128418 43.23567383 113.4128418 47.31567383 C112.4434668 47.33243164 111.4740918 47.34918945 110.4753418 47.36645508 C100.01021732 47.90461626 93.84556982 51.07857967 85.5690918 57.28442383 C75.96183619 64.47603551 65.10718174 70.5028307 53.4128418 73.31567383 C52.2165918 73.76942383 51.0203418 74.22317383 49.7878418 74.69067383 C45.81769193 76.1954887 41.81582592 77.59929454 37.7878418 78.94067383 C37.17344238 79.15900879 36.55904297 79.37734375 35.92602539 79.60229492 C6.1868304 89.28429785 -32.03968216 82.27179361 -59.36547852 68.41381836 C-63.13959651 66.44130014 -66.87102286 64.39551087 -70.5871582 62.31567383 C-70.5871582 61.65567383 -70.5871582 60.99567383 -70.5871582 60.31567383 C-71.4121582 60.10942383 -72.2371582 59.90317383 -73.0871582 59.69067383 C-77.47859643 57.96546596 -81.1339737 55.54098321 -84.5871582 52.31567383 C-84.5871582 51.65567383 -84.5871582 50.99567383 -84.5871582 50.31567383 C-85.69575195 50.15711914 -86.8043457 49.99856445 -87.9465332 49.83520508 C-89.41025265 49.60063465 -90.8737852 49.36489593 -92.3371582 49.12817383 C-93.06676758 49.02698242 -93.79637695 48.92579102 -94.5480957 48.8215332 C-98.43487479 48.16784763 -100.18566609 47.70282693 -103.1027832 44.88989258 C-104.5871582 42.31567383 -104.5871582 42.31567383 -104.5871582 39.31567383 C-100.85989694 36.06423315 -98.0199332 34.20348437 -93.1496582 33.31567383 C-87.19177006 32.2186978 -83.10423803 29.11719584 -78.2512207 25.64379883 C-69.19527209 19.18750739 -59.98332104 14.24493222 -49.5871582 10.31567383 C-47.83606474 9.61004802 -46.08605208 8.90173382 -44.3371582 8.19067383 C-42.75431284 7.56443906 -41.17103652 6.93929143 -39.5871582 6.31567383 C-38.5559082 5.90317383 -37.5246582 5.49067383 -36.4621582 5.06567383 C-32.71557627 4.08830463 -29.45317421 4.18236293 -25.5871582 4.31567383 C-25.5871582 3.65567383 -25.5871582 2.99567383 -25.5871582 2.31567383 C-17.06632521 0.31353593 -8.70423745 -0.0258684 0 0 Z " fill="#3E2D24" transform="translate(699.587158203125,663.684326171875)"/>
<path d="M0 0 C0.99 0 1.98 0 3 0 C9 11.73786408 9 11.73786408 9 17 C9.66 17 10.32 17 11 17 C11.495 19.97 11.495 19.97 12 23 C12.66 23 13.32 23 14 23 C14.76183594 24.46759766 14.76183594 24.46759766 15.5390625 25.96484375 C19.3482234 33.24465613 23.21665122 40.30331171 28 47 C28.58136719 47.84691406 29.16273438 48.69382813 29.76171875 49.56640625 C34.56146879 56.41067457 39.92607303 62.47375208 45.640625 68.54345703 C48.48902324 71.59545845 51.24914515 74.72801325 54.02734375 77.84375 C55.98037767 80.05771765 55.98037767 80.05771765 58.31640625 82.03125 C60 84 60 84 60.1171875 85.90234375 C58.41741353 89.0938774 55.81140694 91.21759836 53.125 93.5625 C51.92843791 94.64314924 50.73314532 95.72520563 49.5390625 96.80859375 C48.9399707 97.3485498 48.34087891 97.88850586 47.72363281 98.44482422 C33.34100373 111.42178559 20.12251594 127.79801481 13 146 C12.34 146 11.68 146 11 146 C10.814375 147.2375 10.62875 148.475 10.4375 149.75 C9.04540623 156.12111528 5.78023476 161.73085203 2 167 C1.34 167 0.68 167 0 167 C-0.391875 165.948125 -0.78375 164.89625 -1.1875 163.8125 C-2.39676628 160.93329457 -3.20384897 159.80609488 -5.5625 157.5625 C-8.18863086 154.80169576 -8.61767468 153.01293582 -9.359375 149.359375 C-16.10415634 124.51883885 -39.7287391 102.72129178 -59 87 C-57.52761526 83.46470188 -55.58999241 81.52595994 -52.6875 79.0625 C-49.32077054 76.14538147 -46.07530107 73.22906613 -43 70 C-42.3915625 69.38640625 -41.783125 68.7728125 -41.15625 68.140625 C-30.74140727 57.19749315 -22.52138561 44.04730158 -15 31 C-14.17892567 29.63430734 -13.35580568 28.26984358 -12.53125 26.90625 C-11.62483185 25.39593423 -10.71858305 23.88551683 -9.8125 22.375 C-9.38364502 21.66972168 -8.95479004 20.96444336 -8.51293945 20.23779297 C-4.67349103 13.78619281 -2.31949781 7.13691634 0 0 Z " fill="#EBE9E1" transform="translate(537,191)"/>
<path d="M0 0 C3.39787531 3.04937527 6.15643619 6.44554524 9 10 C10.175625 11.175625 10.175625 11.175625 11.375 12.375 C19.60558328 20.60558328 27.19193333 30.36119851 32 41 C32 41.66 32 42.32 32 43 C32.66 43 33.32 43 34 43 C34.45439453 44.01707031 34.45439453 44.01707031 34.91796875 45.0546875 C37.00985992 49.7019042 39.13388403 54.29810096 41.5 58.8125 C44.62215686 64.97826889 46.79047569 71.4634906 49 78 C49.28875 78.85078125 49.5775 79.7015625 49.875 80.578125 C50.34505231 81.97848918 50.80977205 83.38066703 51.26660156 84.78540039 C51.7385667 86.21056544 52.22631399 87.63065061 52.73339844 89.04370117 C54.65721675 94.48555525 55.82563419 99.7907291 56.625 105.5 C56.74979736 106.37237305 56.87459473 107.24474609 57.00317383 108.14355469 C58.13824332 116.42572066 58.77744257 124.64633275 59 133 C59.02723145 133.87043945 59.05446289 134.74087891 59.08251953 135.63769531 C59.53374118 151.95545923 58.12309848 167.82831367 56 184 C55.34 184 54.68 184 54 184 C53.9175 185.134375 53.835 186.26875 53.75 187.4375 C52.60335925 197.64421768 50.16664026 208.05406396 46.06640625 217.4765625 C44.73521481 220.6265613 43.62565081 223.83356893 42.5 227.0625 C39.81501596 234.64799172 36.67100555 241.84153917 33 249 C32.34 249 31.68 249 31 249 C30.76539063 249.84046875 30.53078125 250.6809375 30.2890625 251.546875 C28.79241473 255.5560769 26.7825894 258.73802838 24.375 262.25 C23.92769531 262.90967773 23.48039063 263.56935547 23.01953125 264.24902344 C17.00470389 273.02707277 10.24083995 280.97167737 3.00390625 288.75 C0.97671183 290.82915215 0.97671183 290.82915215 0 293 C-8.70426181 291.45173651 -14.8820936 280.47290017 -20 274 C-21.10021484 272.64261719 -21.10021484 272.64261719 -22.22265625 271.2578125 C-28.89971663 262.75545343 -33.97915156 253.5463065 -39 244 C-39.59039062 242.87851562 -40.18078125 241.75703125 -40.7890625 240.6015625 C-45.33727404 231.71505687 -49.29822445 222.60049549 -52.3125 213.078125 C-52.99731276 211.00812279 -53.79907162 209.01717123 -54.625 207 C-55.97744263 203.472495 -56.37401204 200.20367 -56.6730957 196.45605469 C-57.0037688 193.97168477 -57.62661878 191.8482866 -58.42578125 189.4765625 C-67.54052189 159.8332249 -65.05665341 122.85271203 -58 93 C-57.34 93 -56.68 93 -56 93 C-55.87109375 92.16984375 -55.7421875 91.3396875 -55.609375 90.484375 C-53.96126418 81.06056182 -51.94125933 71.95092922 -47.3046875 63.52734375 C-44.73878994 58.55687753 -42.93104051 53.24256955 -41 48 C-40.34 48 -39.68 48 -39 48 C-38.71125 46.824375 -38.4225 45.64875 -38.125 44.4375 C-34.27217597 33.0044687 -13.64784878 0 0 0 Z M-6.375 21.9375 C-14.61619996 30.3450361 -22.88146843 41.54264189 -27.4375 52.4375 C-29 56 -29 56 -31 58.75 C-33.3060418 62.49731793 -34.16856154 65.92246424 -35.2265625 70.16015625 C-35.94192699 72.78677233 -36.81886056 75.18233725 -37.875 77.6875 C-46.23295869 98.11806568 -48.53102863 118.59765881 -48.39111328 140.56616211 C-48.37498789 143.56475131 -48.39109922 146.56199716 -48.41015625 149.56054688 C-48.42660778 165.72718987 -46.42065327 181.21236952 -43 197 C-42.34 197 -41.68 197 -41 197 C-40.896875 198.093125 -40.79375 199.18625 -40.6875 200.3125 C-40.0310434 205.68965184 -38.516408 210.81178648 -37 216 C-36.34 216 -35.68 216 -35 216 C-34.9071875 217.00160156 -34.814375 218.00320313 -34.71875 219.03515625 C-34.11372182 223.22098487 -32.4572053 226.72384035 -30.5 230.4375 C-29.96705322 231.46967651 -29.96705322 231.46967651 -29.42333984 232.52270508 C-28.29567819 234.68918381 -27.14960617 236.84509784 -26 239 C-25.6380957 239.68900391 -25.27619141 240.37800781 -24.90332031 241.08789062 C-19.76344071 250.83002491 -13.97012709 259.46490482 -7 268 C-5.6658353 269.66600123 -4.33221771 271.33244145 -3 273 C7.21641592 269.11916466 13.95528381 253.35304751 18.83496094 244.15966797 C20.03279811 241.93920116 21.28089305 239.75317915 22.5390625 237.56640625 C28.88840483 226.32632191 32.9265247 215.00626573 36.30224609 202.56494141 C36.90164975 200.36153526 37.52893488 198.1702721 38.17578125 195.98046875 C39.2159832 192.33775381 40.12879559 188.68672767 41 185 C41.27287842 183.9167041 41.27287842 183.9167041 41.55126953 182.81152344 C48.39783714 154.95068113 46.14025333 125.73890396 40 98 C39.73630615 96.74872314 39.73630615 96.74872314 39.46728516 95.47216797 C36.62685542 82.08653428 31.75266645 69.39035852 26 57 C25.34 57 24.68 57 24 57 C23.75378906 55.99453125 23.50757813 54.9890625 23.25390625 53.953125 C22.0683019 49.8247739 20.17866064 46.39308221 17.9375 42.75 C17.34630371 41.77764404 17.34630371 41.77764404 16.74316406 40.78564453 C11.76877448 32.78362291 5.91006776 25.42956636 -1 19 C-3.77931498 19 -4.38250566 20.01646643 -6.375 21.9375 Z " fill="#EAE8E0" transform="translate(540,729)"/>
<path d="M0 0 C16.18229898 6.54010133 30.40499315 34.2477396 37.95239258 48.7890625 C38.60784135 50.4994489 39.22261386 52.22700012 39.76489258 53.9765625 C40.94272093 57.75801141 41.38044105 58.23551419 43.95239258 60.7890625 C44.90380859 62.76269531 44.90380859 62.76269531 45.70629883 64.9921875 C46.00342773 65.80816406 46.30055664 66.62414062 46.60668945 67.46484375 C46.90639648 68.31433594 47.20610352 69.16382813 47.51489258 70.0390625 C47.8184668 70.87308594 48.12204102 71.70710938 48.43481445 72.56640625 C51.87544791 82.11622547 53.84014766 91.51466825 55.45239258 101.515625 C55.61739258 102.505625 55.78239258 103.495625 55.95239258 104.515625 C56.16895508 105.85488037 56.16895508 105.85488037 56.38989258 107.22119141 C56.88600009 109.82835475 56.88600009 109.82835475 57.97680664 112.3269043 C61.69217361 121.70365002 60.19520088 134.12034339 60.20239258 144.1015625 C60.20306732 144.94465973 60.20374207 145.78775696 60.20443726 146.65640259 C60.17984096 166.03989149 57.93976425 183.93245117 52.57543945 202.57714844 C51.95253709 204.78854947 51.37477719 207.00702997 50.81176758 209.234375 C50.63444092 209.93054932 50.45711426 210.62672363 50.27441406 211.34399414 C49.79762916 213.22257693 49.32222552 215.10151014 48.84692383 216.98046875 C47.95239258 219.7890625 47.95239258 219.7890625 45.95239258 221.7890625 C45.22771337 223.66684664 45.22771337 223.66684664 44.62817383 225.82421875 C42.99555463 230.94317085 40.69210927 235.51141777 38.13989258 240.2265625 C37.69411865 241.05986084 37.24834473 241.89315918 36.7890625 242.75170898 C27.84199681 259.37697196 17.5963146 274.59675911 3.95629883 287.7578125 C1.90333747 289.6290127 1.90333747 289.6290127 0.95239258 291.7890625 C-2.85963917 291.57123211 -3.92281323 290.92633612 -6.54760742 288.0390625 C-6.96268555 287.49507812 -7.37776367 286.95109375 -7.80541992 286.390625 C-9.15182517 284.5855884 -9.15182517 284.5855884 -11.42260742 282.4140625 C-20.60066961 273.23600031 -27.67115752 263.11333426 -34.17260742 251.9140625 C-34.77975586 250.88925781 -35.3869043 249.86445312 -36.01245117 248.80859375 C-39.19708295 243.34823382 -41.97449909 237.98996938 -44.12133789 232.03857422 C-45.01592964 229.69343624 -45.01592964 229.69343624 -46.55004883 227.35693359 C-48.14095861 224.62899275 -48.94992112 222.19327663 -49.76635742 219.1484375 C-50.05897461 218.07722656 -50.3515918 217.00601563 -50.65307617 215.90234375 C-50.94827148 214.79246094 -51.2434668 213.68257812 -51.54760742 212.5390625 C-52.13920179 210.34577159 -52.73291741 208.15305164 -53.32885742 205.9609375 C-53.61631836 204.90068359 -53.9037793 203.84042969 -54.19995117 202.74804688 C-54.92915145 200.20256665 -55.74747379 197.73293361 -56.64135742 195.2421875 C-59.7793874 186.04343206 -60.44019833 176.17189978 -61.17260742 166.5390625 C-61.25607422 165.44207031 -61.33954102 164.34507812 -61.42553711 163.21484375 C-63.18290162 138.85561981 -61.79173813 113.58617545 -56.04760742 89.7890625 C-55.38760742 89.7890625 -54.72760742 89.7890625 -54.04760742 89.7890625 C-53.91805664 88.73332031 -53.91805664 88.73332031 -53.78588867 87.65625 C-52.20433249 76.54182765 -48.81993119 66.40960212 -43.04760742 56.7890625 C-42.63510742 55.6134375 -42.22260742 54.4378125 -41.79760742 53.2265625 C-37.95055929 42.49641744 -30.94041906 32.73881991 -24.04760742 23.7890625 C-23.4572168 22.99371094 -22.86682617 22.19835937 -22.25854492 21.37890625 C-18.11613161 15.95851436 -13.54157948 10.99420431 -8.79760742 6.1015625 C-8.19480957 5.46436279 -7.59201172 4.82716309 -6.97094727 4.1706543 C-6.39296387 3.58711182 -5.81498047 3.00356934 -5.21948242 2.40234375 C-4.70482422 1.87423096 -4.19016602 1.34611816 -3.65991211 0.80200195 C-2.04760742 -0.2109375 -2.04760742 -0.2109375 0 0 Z M-4.17651367 20.66796875 C-20.44909149 38.61220785 -31.26662453 59.57488682 -38.04760742 82.7890625 C-38.55858103 84.39639695 -39.07840254 86.00096637 -39.61010742 87.6015625 C-39.92141602 88.53935547 -39.92141602 88.53935547 -40.23901367 89.49609375 C-40.92397342 91.43846753 -41.70263816 93.34740175 -42.50073242 95.24609375 C-51.6977099 119.85176845 -50.35830756 154.19242239 -46.04760742 179.7890625 C-45.89163086 180.92988281 -45.7356543 182.07070313 -45.57495117 183.24609375 C-44.74437605 189.13074089 -44.74437605 189.13074089 -42.61791992 194.640625 C-40.86279734 198.15960212 -39.86478114 201.69884758 -38.86010742 205.4765625 C-31.68925456 230.90353687 -18.95926503 252.69875392 -2.04760742 272.7890625 C1.07215896 271.44252703 2.77849188 270.10013529 4.79223633 267.375 C5.29819336 266.69566406 5.80415039 266.01632812 6.32543945 265.31640625 C7.09984375 264.25099609 7.09984375 264.25099609 7.88989258 263.1640625 C8.40229492 262.47699219 8.91469727 261.78992188 9.44262695 261.08203125 C15.80314786 253.55100368 15.80314786 253.55100368 18.95239258 244.7890625 C19.61239258 244.7890625 20.27239258 244.7890625 20.95239258 244.7890625 C23.36786438 241.42840608 24.69607739 237.86793661 26.08129883 233.9921875 C26.99680177 231.67674507 28.09520421 229.54893234 29.26489258 227.3515625 C31.59622396 222.78074007 33.41600646 218.11308198 35.13989258 213.2890625 C35.51464722 212.25761108 35.51464722 212.25761108 35.89697266 211.20532227 C37.77896298 205.81341681 38.93527698 200.4018972 39.95239258 194.7890625 C40.28555848 193.00257293 40.61889376 191.21611495 40.95239258 189.4296875 C41.45614172 186.71810032 41.95835003 184.00634306 42.45239258 181.29296875 C42.61739258 180.40996094 42.78239258 179.52695312 42.95239258 178.6171875 C43.16895508 177.4401123 43.16895508 177.4401123 43.38989258 176.23925781 C43.95239258 173.7890625 43.95239258 173.7890625 44.99389648 170.97753906 C46.11266742 167.25590167 46.27516139 163.79452724 46.28833008 159.9453125 C46.29666367 159.19147278 46.30499725 158.43763306 46.31358337 157.66094971 C46.33306666 155.20344956 46.33301664 152.74662787 46.32739258 150.2890625 C46.32718109 149.44670044 46.3269696 148.60433838 46.32675171 147.7364502 C46.27072911 125.29661202 44.03061421 103.19778202 36.95239258 81.7890625 C36.29239258 81.7890625 35.63239258 81.7890625 34.95239258 81.7890625 C34.78803711 80.95375 34.78803711 80.95375 34.62036133 80.1015625 C34.3825293 78.956875 34.3825293 78.956875 34.13989258 77.7890625 C33.98907227 77.0465625 33.83825195 76.3040625 33.68286133 75.5390625 C31.78969612 68.41185229 28.67022349 61.80131951 25.51489258 55.1640625 C25.13268555 54.34421875 24.75047852 53.524375 24.35668945 52.6796875 C22.19890232 48.12232384 20.01537613 43.80800907 16.95239258 39.7890625 C16.29239258 39.7890625 15.63239258 39.7890625 14.95239258 39.7890625 C14.85442383 39.056875 14.75645508 38.3246875 14.65551758 37.5703125 C13.86182074 34.43080055 12.73013889 32.79288838 10.70239258 30.2890625 C10.0759082 29.51433594 9.44942383 28.73960937 8.80395508 27.94140625 C6.63190291 25.41651017 4.3410022 23.1074189 1.95239258 20.7890625 C1.45739258 19.7990625 1.45739258 19.7990625 0.95239258 18.7890625 C-2.1459719 18.45820618 -2.1459719 18.45820618 -4.17651367 20.66796875 Z " fill="#EAE8E0" transform="translate(539.047607421875,390.2109375)"/>
<path d="M0 0 C2.10448938 0.14109986 4.2085877 0.28804175 6.3125 0.4375 C7.48425781 0.51871094 8.65601563 0.59992187 9.86328125 0.68359375 C13 1 13 1 16 2 C16 2.66 16 3.32 16 4 C17.0725 4.0825 18.145 4.165 19.25 4.25 C24.99902058 4.9724981 30.74291711 6.56071354 36 9 C36.495 10.485 36.495 10.485 37 12 C39.03010445 12.98820965 39.03010445 12.98820965 41.4375 13.625 C45.93625498 14.96812749 45.93625498 14.96812749 48 16 C48 16.66 48 17.32 48 18 C48.70125 18.2475 49.4025 18.495 50.125 18.75 C53.37905021 20.16480444 56.12195603 21.95909408 59 24 C59.78246094 24.53367187 60.56492187 25.06734375 61.37109375 25.6171875 C71.13618031 32.44849624 79.61402749 40.57167409 88 49 C88.56203125 49.53882813 89.1240625 50.07765625 89.703125 50.6328125 C100.1296682 60.69074054 110.7597221 73.35550283 116 87 C116 87.66 116 88.32 116 89 C116.66 89 117.32 89 118 89 C124 99.2 124 99.2 124 105 C124.66 105 125.32 105 126 105 C129.916977 112.90682799 130.74751699 120.23883957 131 129 C119.38461029 128.73436739 108.58825185 125.57291196 99 119 C96.75101874 117.99571406 96.75101874 117.99571406 94.5 117.25 C82.90670388 112.7695833 73.36729459 106.06474179 64 98 C62.1889948 96.56061726 60.37647822 95.12313419 58.5625 93.6875 C41.59061879 79.76619944 28.28132717 62.51464451 17.06054688 43.734375 C15.96578782 41.94405081 14.8248654 40.19080772 13.671875 38.4375 C7.41507102 28.75815974 2 17.77672148 2 6 C1.34 6 0.68 6 0 6 C0 4.02 0 2.04 0 0 Z " fill="#EBE9E1" transform="translate(339,528)"/>
<path d="M0 0 C8.53958844 -0.9149559 15.41902845 2.08296557 23.16259766 5.25683594 C24.68330664 5.87190877 26.22073095 6.44547183 27.76171875 7.0078125 C44.17406037 13.0301924 63.01656204 24.38585478 75 37 C76.15951986 38.00827814 77.32717231 39.00723299 78.5 40 C97.71387541 56.75334146 112.27925035 76.28702712 123.18359375 99.28173828 C123.86904969 100.72439346 124.573005 102.15823876 125.28125 103.58984375 C129.06255879 111.51053981 131.60141322 120.17927275 131 129 C126.56809532 129.17045787 123.89508723 128.97716405 120 127 C118.46669282 126.68526853 116.92336222 126.41698039 115.375 126.1875 C110.56919674 125.29257769 106.77554124 123.5776621 102.48828125 121.27734375 C100.09003504 120.04621893 97.7185736 119.10751868 95.1875 118.1875 C89.44772614 115.96653655 78.84705863 111.69411726 76 106 C74.73075158 105.29158228 73.43337985 104.63323722 72.125 104 C66.91302546 101.19928872 62.89923589 97.50384354 58.61328125 93.4609375 C56.50054777 91.47136785 54.35652517 89.60099141 52.125 87.75 C43.50026198 80.2479035 35.49203337 71.40286355 29 62 C28.34 61.09636719 27.68 60.19273437 27 59.26171875 C15.63066952 43.4117667 -0.81976986 20.08436158 0 0 Z " fill="#EAE8E0" transform="translate(605,754)"/>
<path d="M0 0 C-1.01534185 6.84976892 -3.00259555 12.78151966 -5.7734375 19.1171875 C-6.8393593 21.62244319 -7.7404403 24.09485019 -8.5625 26.6875 C-10.02802547 31.28621787 -11.96417247 35.6286546 -14 40 C-14.66 40 -15.32 40 -16 40 C-16.24492188 40.68707031 -16.48984375 41.37414062 -16.7421875 42.08203125 C-18.21912145 45.50833455 -20.09762355 48.56984174 -22.125 51.6875 C-22.52605957 52.30544434 -22.92711914 52.92338867 -23.34033203 53.56005859 C-29.91589637 63.5543976 -37.81259409 72.31710266 -46 81 C-46.72960937 81.78375 -47.45921875 82.5675 -48.2109375 83.375 C-67.41686501 103.36630001 -102.27160207 129.3589907 -130.78295898 130.06933594 C-131.88039429 130.03501465 -131.88039429 130.03501465 -133 130 C-132.125 122.375 -132.125 122.375 -131 119 C-130.34 119 -129.68 119 -129 119 C-128.938125 117.7625 -128.87625 116.525 -128.8125 115.25 C-127.09259778 100.32868613 -116.78166841 84.85136666 -108 73 C-107.39671875 72.13117188 -106.7934375 71.26234375 -106.171875 70.3671875 C-99.65643928 61.07077311 -92.03735643 52.99852862 -84 45 C-83.31679688 44.29359375 -82.63359375 43.5871875 -81.9296875 42.859375 C-76.30955698 37.08965926 -70.35072674 31.94930939 -64 27 C-63.15953125 26.34257813 -62.3190625 25.68515625 -61.453125 25.0078125 C-51.59554386 17.56981946 -40.35241467 9.47160552 -28.1875 6.57421875 C-25.78851024 5.94448394 -23.7332466 5.0114745 -21.5 3.9375 C-14.60574507 0.75834711 -7.54643182 -0.32810573 0 0 Z " fill="#ECEAE3" transform="translate(737,528)"/>
<path d="M0 0 C0.08159574 4.16138263 -0.01751476 7.9472484 -1 12 C-1.66 12 -2.32 12 -3 12 C-3.0825 12.99 -3.165 13.98 -3.25 15 C-3.78015244 18.80326751 -5.2112634 21.70773864 -7.01171875 25.06640625 C-8.31692675 27.62007407 -9.17741244 30.25804145 -10 33 C-10.66 33 -11.32 33 -12 33 C-12.23589844 33.83144531 -12.47179687 34.66289063 -12.71484375 35.51953125 C-14.22343064 39.60509634 -16.23590501 43.02361944 -18.5625 46.6875 C-19.00867676 47.39374512 -19.45485352 48.09999023 -19.91455078 48.82763672 C-23.84540911 54.94462596 -28.2336895 60.5098879 -33 66 C-33.98460476 67.16667769 -34.96758715 68.33472587 -35.94921875 69.50390625 C-50.93598436 87.28990368 -68.49535561 102.7683515 -89 114 C-89.66 114 -90.32 114 -91 114 C-91 114.66 -91 115.32 -91 116 C-94.09068059 117.18872331 -97.18154261 118.37693682 -100.2734375 119.5625 C-102.67829768 120.49016095 -105.0796449 121.42700562 -107.4765625 122.375 C-115.42040568 125.5004465 -122.36898899 128.13353182 -131 128 C-130.83122809 119.20851788 -129.07530428 112.75106893 -125 105 C-124.14284965 103.31401358 -123.28860952 101.62654397 -122.4375 99.9375 C-121.80908203 98.70580078 -121.80908203 98.70580078 -121.16796875 97.44921875 C-120.03918643 95.08217355 -119.13884242 92.7154317 -118.25 90.25 C-104.49804989 54.98290212 -65.11206305 23.09232242 -31.78710938 7.81982422 C-30.12486593 7.05728139 -28.47585127 6.26608109 -26.828125 5.47265625 C-18.2344433 1.55093643 -9.43617449 0 0 0 Z " fill="#ECEAE3" transform="translate(470,755)"/>
<path d="M0 0 C0.67033264 -0.00358521 1.34066528 -0.00717041 2.03131104 -0.01086426 C15.25685464 -0.04886986 28.14944681 0.90015376 40.6875 5.3125 C45.30994012 6.88975153 49.83434283 8.3678605 54.625 9.34765625 C57.83342179 10.02366423 60.24136122 10.80950549 62.9375 12.75 C65.40209604 14.42379062 67.38466343 15.54560362 70.1875 16.6875 C74.30471342 18.5331474 77.65779195 20.89636002 81.30078125 23.53515625 C84.24568485 25.6190305 87.29364218 27.46264754 90.4140625 29.26953125 C91.10628906 29.78580078 91.10628906 29.78580078 91.8125 30.3125 C91.8125 30.9725 91.8125 31.6325 91.8125 32.3125 C93.02486328 32.58513672 93.02486328 32.58513672 94.26171875 32.86328125 C95.86466797 33.24033203 95.86466797 33.24033203 97.5 33.625 C98.55574219 33.86863281 99.61148438 34.11226562 100.69921875 34.36328125 C103.82763836 35.31711558 106.16794992 36.39615936 108.8125 38.3125 C109.625 41 109.625 41 109.8125 43.3125 C106.32362278 45.97506419 103.59502839 47.45520388 99.3125 48.4375 C92.93983143 50.15879743 88.19764799 54.01993302 83.01171875 57.9375 C75.77138158 63.3125 75.77138158 63.3125 72.8125 63.3125 C72.8125 63.9725 72.8125 64.6325 72.8125 65.3125 C67.37611131 67.71462523 61.86496656 69.88899222 56.3046875 71.98828125 C54.07094278 72.83530526 51.84579517 73.70559496 49.6328125 74.60546875 C33.85884473 80.75239864 17.77081992 82.68210207 0.9375 82.6875 C-0.97869141 82.69003784 -0.97869141 82.69003784 -2.93359375 82.69262695 C-9.40769376 82.61496178 -14.97978602 82.09270157 -21.1875 80.3125 C-23.44840592 79.93416088 -25.71328424 79.63063117 -27.98510742 79.32543945 C-43.14047964 77.26168308 -55.75352342 71.31146361 -69.1875 64.3125 C-70.10144531 63.84585938 -71.01539063 63.37921875 -71.95703125 62.8984375 C-75.58868153 60.9805302 -78.68609552 58.99246807 -81.75 56.25 C-88.25600147 50.48669276 -93.87203859 48.87485851 -102.55078125 48.5859375 C-105.1875 48.3125 -105.1875 48.3125 -108.1875 46.3125 C-109 42.875 -109 42.875 -109.1875 39.3125 C-108.5275 38.3225 -107.8675 37.3325 -107.1875 36.3125 C-104.43038731 35.76748935 -101.84597454 35.38700235 -99.0625 35.125 C-98.30839844 35.04314453 -97.55429687 34.96128906 -96.77734375 34.87695312 C-94.91533393 34.6766103 -93.05154189 34.49295964 -91.1875 34.3125 C-91.1875 33.6525 -91.1875 32.9925 -91.1875 32.3125 C-89.7109375 31.12109375 -89.7109375 31.12109375 -87.5625 29.75 C-86.34240234 28.96496094 -86.34240234 28.96496094 -85.09765625 28.1640625 C-84.13730469 27.55304687 -83.17695313 26.94203125 -82.1875 26.3125 C-81.01871524 25.55072971 -79.85079013 24.78763931 -78.68359375 24.0234375 C-77.45595921 23.22360514 -76.22809497 22.42412521 -75 21.625 C-74.41847168 21.244646 -73.83694336 20.86429199 -73.23779297 20.47241211 C-63.69487828 14.3125 -63.69487828 14.3125 -58.1875 14.3125 C-58.1875 13.6525 -58.1875 12.9925 -58.1875 12.3125 C-56.8675 12.3125 -55.5475 12.3125 -54.1875 12.3125 C-54.1875 11.6525 -54.1875 10.9925 -54.1875 10.3125 C-53.27871094 10.05726563 -53.27871094 10.05726563 -52.3515625 9.796875 C-47.98560338 8.53410529 -43.82925467 7.18855612 -39.6875 5.3125 C-26.94632013 0.24719913 -13.52151039 0.02901864 0 0 Z M-33.49609375 17.69921875 C-36.52453854 19.51452745 -39.46142768 20.45470477 -42.81005859 21.52197266 C-61.95256855 27.87860812 -61.95256855 27.87860812 -76.5 40.546875 C-76.726875 41.12953125 -76.95375 41.7121875 -77.1875 42.3125 C-74.51502366 44.65537418 -74.51502366 44.65537418 -71.1875 45.3125 C-71.1875 45.9725 -71.1875 46.6325 -71.1875 47.3125 C-65.94307896 51.10072365 -60.15996934 53.87927175 -54.1875 56.3125 C-52.89294619 56.99454798 -51.6014067 57.68233951 -50.3125 58.375 C-46.78372567 60.16986602 -43.46417698 61.00772633 -39.59375 61.75 C-36.90277409 62.3790593 -34.44821912 63.30687414 -31.875 64.3125 C-21.2431916 68.27601488 -10.55980168 68.63115087 0.6875 68.5625 C1.94691406 68.57023438 3.20632813 68.57796875 4.50390625 68.5859375 C16.15527697 68.56198813 27.43274076 67.22021956 38.6875 64.1875 C39.38746094 64.00574219 40.08742188 63.82398438 40.80859375 63.63671875 C42.47835036 63.20212456 44.14573092 62.75841485 45.8125 62.3125 C45.8125 61.6525 45.8125 60.9925 45.8125 60.3125 C46.59625 60.23 47.38 60.1475 48.1875 60.0625 C52.990145 59.06884931 57.31059489 57.22536482 61.8125 55.3125 C61.8125 54.6525 61.8125 53.9925 61.8125 53.3125 C62.48667969 53.24933594 63.16085937 53.18617188 63.85546875 53.12109375 C67.9119168 52.01186687 70.76453603 49.84257035 74.125 47.375 C74.77017578 46.91931641 75.41535156 46.46363281 76.08007812 45.99414062 C77.69990999 44.823405 79.26192175 43.57352508 80.8125 42.3125 C80.8125 41.6525 80.8125 40.9925 80.8125 40.3125 C78.85652816 38.91537726 76.8465906 37.59322371 74.8125 36.3125 C73.74 35.57 72.6675 34.8275 71.5625 34.0625 C69.07454637 32.1335415 69.07454637 32.1335415 66.8125 32.3125 C66.8125 31.6525 66.8125 30.9925 66.8125 30.3125 C61.33034122 26.92624138 55.84723325 24.73349067 49.75 22.6875 C48.87794922 22.3884375 48.00589844 22.089375 47.10742188 21.78125 C45.41886169 21.20348376 43.72864388 20.63053405 42.03662109 20.06298828 C40.25844535 19.46297596 38.48894003 18.8372901 36.72265625 18.203125 C18.9739052 12.77129246 -16.88136926 7.7191389 -33.49609375 17.69921875 Z " fill="#EDEBE2" transform="translate(369.1875,663.6875)"/>
<path d="M0 0 C2.21168659 0.00315435 4.42202304 -0.02036433 6.63354492 -0.0456543 C15.94250187 -0.08661231 24.33901838 1.06774945 33.4128418 3.31567383 C34.96200996 3.6236858 36.51382208 3.91902705 38.0690918 4.19458008 C39.3375293 4.42016602 40.6059668 4.64575195 41.9128418 4.87817383 C43.2019043 5.10633789 44.4909668 5.33450195 45.8190918 5.56958008 C49.13845863 6.2587095 52.2261233 7.16983215 55.4128418 8.31567383 C55.4128418 8.97567383 55.4128418 9.63567383 55.4128418 10.31567383 C56.12569336 10.49743164 56.83854492 10.67918945 57.57299805 10.86645508 C63.08661638 12.31350161 68.24622822 13.90458749 73.4128418 16.31567383 C73.4128418 16.97567383 73.4128418 17.63567383 73.4128418 18.31567383 C74.13084961 18.57864258 74.84885742 18.84161133 75.58862305 19.11254883 C78.50118441 20.35330803 80.95503167 21.83078802 83.6003418 23.56567383 C88.18953263 26.55238906 92.85066639 29.35114191 97.61206055 32.05395508 C98.20631836 32.47032227 98.80057617 32.88668945 99.4128418 33.31567383 C99.4128418 33.97567383 99.4128418 34.63567383 99.4128418 35.31567383 C104.0328418 35.31567383 108.6528418 35.31567383 113.4128418 35.31567383 C113.4128418 39.27567383 113.4128418 43.23567383 113.4128418 47.31567383 C112.4434668 47.33243164 111.4740918 47.34918945 110.4753418 47.36645508 C100.01021732 47.90461626 93.84556982 51.07857967 85.5690918 57.28442383 C75.96183619 64.47603551 65.10718174 70.5028307 53.4128418 73.31567383 C52.2165918 73.76942383 51.0203418 74.22317383 49.7878418 74.69067383 C45.81769193 76.1954887 41.81582592 77.59929454 37.7878418 78.94067383 C37.17344238 79.15900879 36.55904297 79.37734375 35.92602539 79.60229492 C6.1868304 89.28429785 -32.03968216 82.27179361 -59.36547852 68.41381836 C-63.13959651 66.44130014 -66.87102286 64.39551087 -70.5871582 62.31567383 C-70.5871582 61.65567383 -70.5871582 60.99567383 -70.5871582 60.31567383 C-71.4121582 60.10942383 -72.2371582 59.90317383 -73.0871582 59.69067383 C-77.47859643 57.96546596 -81.1339737 55.54098321 -84.5871582 52.31567383 C-84.5871582 51.65567383 -84.5871582 50.99567383 -84.5871582 50.31567383 C-85.69575195 50.15711914 -86.8043457 49.99856445 -87.9465332 49.83520508 C-89.41025265 49.60063465 -90.8737852 49.36489593 -92.3371582 49.12817383 C-93.06676758 49.02698242 -93.79637695 48.92579102 -94.5480957 48.8215332 C-98.43487479 48.16784763 -100.18566609 47.70282693 -103.1027832 44.88989258 C-104.5871582 42.31567383 -104.5871582 42.31567383 -104.5871582 39.31567383 C-100.85989694 36.06423315 -98.0199332 34.20348437 -93.1496582 33.31567383 C-87.19177006 32.2186978 -83.10423803 29.11719584 -78.2512207 25.64379883 C-69.19527209 19.18750739 -59.98332104 14.24493222 -49.5871582 10.31567383 C-47.83606474 9.61004802 -46.08605208 8.90173382 -44.3371582 8.19067383 C-42.75431284 7.56443906 -41.17103652 6.93929143 -39.5871582 6.31567383 C-38.5559082 5.90317383 -37.5246582 5.49067383 -36.4621582 5.06567383 C-32.71557627 4.08830463 -29.45317421 4.18236293 -25.5871582 4.31567383 C-25.5871582 3.65567383 -25.5871582 2.99567383 -25.5871582 2.31567383 C-17.06632521 0.31353593 -8.70423745 -0.0258684 0 0 Z M-38.17700195 21.20239258 C-40.77991518 22.40471068 -43.44024969 23.33732732 -46.14672852 24.27783203 C-55.92579287 27.71206373 -67.58977313 32.35835867 -74.5871582 40.31567383 C-73.36237986 43.7450532 -71.58411229 45.25098968 -68.52075195 47.12426758 C-67.08738938 48.00745058 -65.68808066 48.94641605 -64.30981445 49.91333008 C-56.54751653 55.22437603 -48.44094749 58.35583828 -39.5871582 61.31567383 C-38.56235352 61.65856445 -37.53754883 62.00145508 -36.48168945 62.35473633 C-32.57618267 63.58926875 -29.73525626 64.31567383 -25.5871582 64.31567383 C-25.5871582 64.97567383 -25.5871582 65.63567383 -25.5871582 66.31567383 C-16.16349363 68.05412599 -7.03680082 68.66692549 2.5378418 68.62817383 C3.20972534 68.62768036 3.88160889 68.62718689 4.57385254 68.62667847 C16.59139206 68.5997533 28.91237866 68.14916154 40.4128418 64.31567383 C40.4128418 63.65567383 40.4128418 62.99567383 40.4128418 62.31567383 C41.17209961 62.18290039 41.93135742 62.05012695 42.71362305 61.91333008 C43.70749023 61.73672852 44.70135742 61.56012695 45.7253418 61.37817383 C46.71147461 61.20415039 47.69760742 61.03012695 48.71362305 60.85083008 C51.49473392 60.35820536 51.49473392 60.35820536 54.4128418 59.31567383 C54.4128418 58.65567383 54.4128418 57.99567383 54.4128418 57.31567383 C55.0934668 57.21254883 55.7740918 57.10942383 56.4753418 57.00317383 C62.13969602 55.6774739 67.25838981 52.95575899 72.4128418 50.31567383 C72.4128418 49.65567383 72.4128418 48.99567383 72.4128418 48.31567383 C73.1140918 48.06817383 73.8153418 47.82067383 74.5378418 47.56567383 C77.78286639 46.15479357 80.51600917 44.33671985 83.4128418 42.31567383 C81.2460839 35.81540015 72.00507925 32.42031494 66.26049805 29.19848633 C64.45336467 28.17196784 64.45336467 28.17196784 62.4128418 28.31567383 C62.4128418 27.65567383 62.4128418 26.99567383 62.4128418 26.31567383 C60.8350293 25.91348633 60.8350293 25.91348633 59.2253418 25.50317383 C55.77063064 24.42711625 53.46528983 23.17145004 50.4128418 21.31567383 C35.53482142 14.21598691 18.92672916 14.01603253 2.7878418 13.87817383 C2.05597656 13.86604858 1.32411133 13.85392334 0.57006836 13.84143066 C-12.73414573 13.65449841 -26.11064141 15.18083693 -38.17700195 21.20239258 Z " fill="#EBE9E0" transform="translate(699.587158203125,663.684326171875)"/>
<path d="M0 0 C0.99 0 1.98 0 3 0 C3.98163422 1.93625098 4.96022454 3.87404539 5.9375 5.8125 C6.48277344 6.89144531 7.02804687 7.97039062 7.58984375 9.08203125 C9 12 9 12 10 15 C10.66 15 11.32 15 12 15 C12.94298085 16.32715823 13.87223978 17.66540275 14.74609375 19.0390625 C25.91800215 36.8247172 25.91800215 36.8247172 41 51 C41 54 41 54 39.671875 55.3671875 C39.03765625 55.86476563 38.4034375 56.36234375 37.75 56.875 C27.44030467 65.56069023 19.34173154 75.76116643 12 87 C10.89600664 88.62511774 9.7918599 90.25013132 8.6875 91.875 C6.28456218 95.49614028 4.10342175 99.19766068 2 103 C0.5 101.625 0.5 101.625 -1 100 C-1 99.34 -1 98.68 -1 98 C-1.66 98 -2.32 98 -3 98 C-3.4846875 97.10539062 -3.969375 96.21078125 -4.46875 95.2890625 C-8.23846167 88.44738232 -12.14603794 82.1861169 -17.1875 76.1796875 C-18.80233539 74.23770873 -20.25896806 72.26779964 -21.6875 70.1875 C-25.95215677 64.30918931 -31.32466154 59.96398263 -36.9375 55.4375 C-38 54 -38 54 -37.81640625 52.1640625 C-36.75002581 49.33738898 -35.21035955 47.99052492 -33 45.9375 C-19.51812279 32.79425706 -8.84527817 16.56598562 0 0 Z " fill="#3C2B23" transform="translate(537,224)"/>
<path d="M0 0 C-1.875 6.75 -1.875 6.75 -3 9 C-3.66 9 -4.32 9 -5 9 C-5.2784375 10.423125 -5.2784375 10.423125 -5.5625 11.875 C-7.09666638 17.31632392 -10.69326699 21.51122215 -14 26 C-14.66 27.010625 -15.32 28.02125 -16 29.0625 C-29.92039045 49.50807347 -47.95966042 66.09793275 -69.04882812 78.8203125 C-70.8683299 79.92039165 -72.67704478 81.03633209 -74.484375 82.15625 C-76.03898438 83.09984375 -76.03898438 83.09984375 -77.625 84.0625 C-78.52476562 84.61035156 -79.42453125 85.15820312 -80.3515625 85.72265625 C-83.25344697 87.1222377 -85.81385521 87.62158691 -89 88 C-85.38376843 68.00681164 -69.62048415 51.20132463 -56 37 C-55.49065918 36.46342773 -54.98131836 35.92685547 -54.45654297 35.37402344 C-44.79291675 25.23718608 -34.82706728 15.93845707 -22 10 C-20.97731032 9.02321659 -19.97578434 8.02364297 -19 7 C-15.37103653 4.44991756 -12.39739851 3.51132541 -8 3 C-8 2.34 -8 1.68 -8 1 C-5.07175348 0.02391783 -3.04386724 -0.08226668 0 0 Z " fill="#3C2C23" transform="translate(716,548)"/>
<path d="M0 0 C-1.31061591 4.23429756 -2.94356259 8.07407404 -5 12 C-5.66 12 -6.32 12 -7 12 C-7.24878906 12.6909375 -7.49757813 13.381875 -7.75390625 14.09375 C-12.32217271 24.74826488 -20.05794919 33.93385435 -27.69189453 42.52441406 C-28.90025812 43.88748789 -30.08970306 45.26727045 -31.27734375 46.6484375 C-46.39584431 63.98140198 -68.07530585 83.67457326 -91 89 C-83.17826819 56.98206981 -53.26273939 28.67043757 -26.25 11.5625 C-21.26850445 8.56633925 -16.60213384 6.51922274 -11 5 C-11 4.34 -11 3.68 -11 3 C-4.5 0 -4.5 0 0 0 Z " fill="#3E2E25" transform="translate(451,774)"/>
<path d="M0 0 C6.641716 0.5421809 10.85411915 2.57317763 16.1875 6.6875 C18.13012235 8.09422653 19.65659088 8.58153409 22 9 C22 9.66 22 10.32 22 11 C22.68320312 11.23203125 23.36640625 11.4640625 24.0703125 11.703125 C27.67171099 13.29734407 30.72204112 15.4240061 33.875 17.75 C34.8486853 18.46820923 34.8486853 18.46820923 35.84204102 19.20092773 C46.12344874 26.95126096 55.66846979 35.66753 63.4375 45.96484375 C65.07440291 48.18838004 65.07440291 48.18838004 67.625 50.625 C75.98201702 58.98201702 82.83057991 69.62737499 86 81 C86.66 81 87.32 81 88 81 C89.25664978 83.90600261 90 85.79604584 90 89 C87.14166732 88.37889888 84.77349466 87.48383222 82.1875 86.125 C79.69759428 84.83885384 77.30194215 83.72341104 74.6875 82.6875 C69.46324252 80.50060152 64.52038772 77.39233437 60 74 C60 73.34 60 72.68 60 72 C58.92492187 71.63261719 58.92492187 71.63261719 57.828125 71.2578125 C52.52229283 68.89803631 48.38128014 64.74936474 44 61 C43.1853125 60.31035156 42.370625 59.62070312 41.53125 58.91015625 C36.55797204 54.60963336 32.18607288 50.06306871 28 45 C27.28972656 44.154375 26.57945312 43.30875 25.84765625 42.4375 C11 24.56955128 11 24.56955128 11 21 C10.34 21 9.68 21 9 21 C7.67997444 18.44113496 6.36886218 15.87832932 5.0625 13.3125 C4.68931641 12.59126953 4.31613281 11.87003906 3.93164062 11.12695312 C2.06034761 7.43494258 0.51730444 4.16306904 0 0 Z " fill="#3C2C23" transform="translate(360,548)"/>
<path d="M0 0 C7.07517415 1.94823636 12.83245129 5.07890943 19 9 C22.02406936 10.87501208 24.48223461 12.34856196 28 13 C28 13.66 28 14.32 28 15 C28.53753906 15.23976563 29.07507813 15.47953125 29.62890625 15.7265625 C42.37162168 22.5702614 55.09954759 34.47692888 63.58984375 46.1171875 C65.08484477 48.20620381 65.08484477 48.20620381 67.5625 50.5625 C70.74697603 53.74697603 73.56328941 57.20677011 76 61 C76 61.66 76 62.32 76 63 C76.66 63 77.32 63 78 63 C79.48074954 65.05758772 80.81476849 67.08788652 82.125 69.25 C82.49753906 69.83652344 82.87007812 70.42304687 83.25390625 71.02734375 C85.31481056 74.38669326 86 75.95471004 86 80 C86.66 80 87.32 80 88 80 C89.49821059 83.37097383 90 85.20442119 90 89 C88.37433394 88.52309796 86.74948689 88.04340334 85.125 87.5625 C84.22007812 87.29566406 83.31515625 87.02882813 82.3828125 86.75390625 C80 86 80 86 78 85 C78 84.34 78 83.68 78 83 C76.93652344 82.58427734 76.93652344 82.58427734 75.8515625 82.16015625 C62.53800965 76.74354639 52.78902721 68.68256846 42.2890625 59.04296875 C40.70580551 57.62992539 39.07506453 56.26898011 37.41015625 54.953125 C31.11601845 49.8525271 26.3858224 43.01650617 21.55200195 36.56860352 C19.76464568 34.20179614 17.98388096 31.984088 15.87109375 29.8984375 C13.86136546 27.85933949 12.61083392 25.88666261 11.25 23.375 C10.82203125 22.59898437 10.3940625 21.82296875 9.953125 21.0234375 C9 19 9 19 9 17 C8.34 17 7.68 17 7 17 C5.82592979 14.73272667 4.66060261 12.46165376 3.5 10.1875 C3.16613281 9.54490234 2.83226562 8.90230469 2.48828125 8.24023438 C0.99760916 5.30452301 0 3.33873483 0 0 Z " fill="#3C2C23" transform="translate(626,774)"/>
<path d="M0 0 C4.81371336 0.50142847 7.65388417 3.22105473 11.3125 6.1875 C13.54144174 8.99431553 13.73477352 10.73194246 14 14.3125 C14.08636719 15.08078125 14.17273438 15.8490625 14.26171875 16.640625 C14.68960031 22.84015332 13.42945787 26.12094038 9.5078125 30.9140625 C8 32.3125 8 32.3125 6 32.3125 C6 32.9725 6 33.6325 6 34.3125 C1.80495739 36.4100213 -3.44292197 35.86154555 -8 35.3125 C-11 33.0625 -11 33.0625 -13 30.3125 C-13.69351563 29.73886719 -14.38703125 29.16523437 -15.1015625 28.57421875 C-17.71895638 25.45596554 -17.46934239 23.39312834 -17.375 19.375 C-17.36210938 18.16972656 -17.34921875 16.96445312 -17.3359375 15.72265625 C-16.76155508 9.89200679 -14.81302377 6.48866328 -10.640625 2.5390625 C-7.37943847 0.10093733 -3.89163965 0.40537913 0 0 Z " fill="#EBE9E1" transform="translate(737,608.6875)"/>
<path d="M0 0 C3.95122602 2.01153324 6.70849352 4.18082253 9 8 C9 8.66 9 9.32 9 10 C9.66 10 10.32 10 11 10 C12.79973286 15.39919857 12.70112627 20.93557265 10.875 26.3125 C7.99644284 30.43843192 4.86637047 33.37787651 0 35 C-5.08698626 35.29347998 -9.33314596 35.12129729 -14 33 C-18.07651923 28.89654342 -20.3666446 24.69724675 -20.5625 18.875 C-20.05613435 11.4406316 -16.94713218 6.32768081 -12 1 C-8.29018719 -0.85490641 -4.04876607 -0.4540091 0 0 Z " fill="#EEEDE4" transform="translate(344,609)"/>
<path d="M0 0 C2.34127368 2.48316905 2.83974582 4.19872911 3.5 7.5 C2.73891537 11.30542313 1.07172365 12.71254622 -2 15 C-5.5625 15.625 -5.5625 15.625 -9 15 C-11.96135546 12.41830549 -12.86756104 10.81118865 -13.5 6.9375 C-13 4 -13 4 -11.5625 1.625 C-7.80805915 -0.75586493 -4.32410792 -0.94999341 0 0 Z " fill="#D6D3CA" transform="translate(770,415)"/>
<path d="M0 0 C2.9375 0.5625 2.9375 0.5625 5.3125 2.0625 C7.74414499 5.80349229 7.42924842 8.13676418 6.9375 12.5625 C5.9375 14.5625 5.9375 14.5625 3.9375 15.5625 C-2.89461679 16.32162409 -2.89461679 16.32162409 -6.5625 13.9375 C-8.54448314 10.79936002 -8.73314058 9.21376535 -8.0625 5.5625 C-5.57647551 2.19905511 -4.14824477 0.76192251 0 0 Z " fill="#D9D5CC" transform="translate(892.0625,620.4375)"/>
<path d="M0 0 C3.0099077 2.29014716 4.69783903 3.79135614 5.625 7.5 C4.68875582 11.24497671 3.06965937 12.71408345 0 15 C-3.5625 15.625 -3.5625 15.625 -7 15 C-9.5 12.9375 -9.5 12.9375 -11 10 C-11 6.1862249 -10.84985071 3.97575452 -8.3125 1.0625 C-5.2135552 -0.3613395 -3.37817188 -0.55153827 0 0 Z " fill="#DCD9D1" transform="translate(312,415)"/>
<path d="M0 0 C2.875 1.5 2.875 1.5 5 4 C5.76413067 7.06268502 5.51619772 8.74795435 5 12 C2.9375 14.0625 2.9375 14.0625 0 15 C-3.77654862 14.93488709 -6.04916906 14.82814308 -8.9375 12.3125 C-10.33817538 9.26397123 -10.4842732 7.32073048 -10 4 C-7.20900702 -0.07914358 -4.82277608 -0.78739201 0 0 Z " fill="#D9D6CE" transform="translate(900,744)"/>
<path d="M0 0 C1.45742463 -0.08096803 2.91612807 -0.13917774 4.375 -0.1875 C5.18710937 -0.22230469 5.99921875 -0.25710938 6.8359375 -0.29296875 C7.55007813 -0.19628906 8.26421875 -0.09960938 9 0 C11.67927341 4.01891012 11.15601248 6.24161923 11 11 C9.02 11.99 9.02 11.99 7 13 C7 13.66 7 14.32 7 15 C3.88601543 15.21231713 1.54695926 15.21590497 -1.375 14.0625 C-3.99520534 10.73685476 -3.30779383 7.0782683 -3 3 C-2.34 3 -1.68 3 -1 3 C-0.67 2.01 -0.34 1.02 0 0 Z " fill="#EDECE4" transform="translate(503,1060)"/>
<path d="M0 0 C2.4375 1.0625 2.4375 1.0625 4 3 C4.46131882 7.2287558 4.42324275 10.44440083 2 14 C-0.9672084 15.08103228 -3.86034099 15.22426136 -7 15 C-9.0625 13.5625 -9.0625 13.5625 -10 11 C-10.48970283 7.46562305 -10.65888484 4.24025383 -8.9375 1 C-5.85873258 -0.58904125 -3.39844421 -0.35773097 0 0 Z " fill="#E1DFD8" transform="translate(392,1029)"/>
<path d="M0 0 C2.19438179 2.70077759 2.25635997 4.70828188 2.07421875 8.125 C1.625 10 1.625 10 -0.5 12 C-4.65221243 13.4442478 -7.65500914 13.72420668 -11.75 12 C-13.94438179 9.29922241 -14.00635997 7.29171812 -13.82421875 3.875 C-13.375 2 -13.375 2 -11.25 0 C-7.09778757 -1.4442478 -4.09499086 -1.72420668 0 0 Z " fill="#DBD8D0" transform="translate(890.375,806)"/>
<path d="M0 0 C2.65656032 2.15845526 2.92904589 3.58314463 3.5 6.9375 C2.81810427 11.11411135 1.36996335 12.50915752 -2 15 C-5.0625 15.625 -5.0625 15.625 -8 15 C-10.89648251 12.40841039 -11.87307907 10.7773907 -12.5 6.9375 C-12 4 -12 4 -10.5 1.625 C-6.73102871 -0.82483134 -4.45665069 -0.5659239 0 0 Z " fill="#DDDBD3" transform="translate(480,340)"/>
<path d="M0 0 C2.74123038 0.19652203 3.76276374 0.38457281 6 2.0625 C7.53542995 5.90107488 7.52593415 8.4207686 7 12.5625 C4.32425114 15.08085187 2.48989524 15.49391467 -1.125 16 C-4 15.5625 -4 15.5625 -5.875 13.9375 C-7.79615486 9.88172862 -7.45227319 6.86278543 -6 2.6875 C-3.72761829 0.27309443 -3.17911098 0.16947467 0 0 Z " fill="#DDDAD2" transform="translate(416,354.4375)"/>
<path d="M0 0 C2 2 2 2 2.375 5.875 C2.27460033 8.7760221 2.02097432 9.96261099 0.5625 12.5625 C-2.84586945 14.47451213 -5.17719375 14.11306454 -8.9765625 13.65234375 C-11 13 -11 13 -13 10 C-13.44710264 6.497696 -13.40404695 4.66755584 -11.5625 1.625 C-7.87825567 -0.71135006 -4.26545908 -0.70816502 0 0 Z " fill="#DEDBD3" transform="translate(663,355)"/>
<path d="M0 0 C2.4375 1.0625 2.4375 1.0625 4 3 C4.5625 6.4375 4.5625 6.4375 4 10 C1.41830549 12.96135546 -0.18881135 13.86756104 -4.0625 14.5 C-7 14 -7 14 -9.375 12.375 C-11.48706506 9.28813568 -11.61195145 7.6717087 -11 4 C-8.04627097 -0.48966812 -5.14336369 -0.64292046 0 0 Z " fill="#E3E1DA" transform="translate(450,1050)"/>
<path d="M0 0 C2.4375 1.5 2.4375 1.5 4 4 C4.18826158 6.97688617 3.720648 9.02132161 3 12 C-0.71013399 14.47342266 -2.61060262 14.38503486 -7 14 C-9.4375 13 -9.4375 13 -11 11 C-11.61786842 8.20210525 -11.66879292 5.79148348 -11 3 C-7.65852532 -0.14491735 -4.48001454 -0.66723621 0 0 Z " fill="#E3E1D9" transform="translate(602,340)"/>
<path d="M0 0 C3.55853339 -0.3953926 6.1089459 -0.36556065 9.4375 1 C11.47557781 3.6087396 11.50191083 5.80927158 11.31640625 9.05859375 C10.86038384 11.85665718 10.22664226 13.21868619 8 15 C5.125 15.5625 5.125 15.5625 2 15 C-0.9375 12.9375 -0.9375 12.9375 -3 10 C-2.92607229 5.71219277 -2.3833231 3.57498466 0 0 Z " fill="#E6E4DD" transform="translate(565,1060)"/>
<path d="M0 0 C2.3125 1 2.3125 1 4 3 C4.5659239 7.45665069 4.82483134 9.73102871 2.375 13.5 C-0.63721374 15.40245078 -2.49662019 15.38080215 -6 15 C-6.66 14.67 -7.32 14.34 -8 14 C-8 13.34 -8 12.68 -8 12 C-8.66 12 -9.32 12 -10 12 C-10.23822167 9.14133991 -10.42775712 6.80180916 -10 4 C-6.98997979 0.5599769 -4.56315876 -0.8190285 0 0 Z " fill="#E2DFD6" transform="translate(185,622)"/>
<path d="M0 0 C2.375 1 2.375 1 4 3 C4.45314453 6.17201171 4.70191508 7.99265696 4 11 C1.5816209 13.76386182 0.03342666 14.79835577 -3.5625 15.5 C-6.96311101 14.80243877 -8.05445623 13.88228706 -10 11 C-10.59002965 8.03793195 -10.39336407 6.09774206 -10 3 C-7.19663749 -0.45029232 -4.26211439 -0.5327643 0 0 Z " fill="#E2DFD7" transform="translate(363,381)"/>
<path d="M0 0 C3.72305322 0.42307423 5.22672458 1.57294383 7.75 4.3125 C8.375 7.25 8.375 7.25 7.75 10.3125 C5.26397551 13.67594489 3.83574477 15.11307749 -0.3125 15.875 C-3.95693151 15.17713014 -5.15889337 14.36873277 -7.25 11.3125 C-7.5 8.0625 -7.5 8.0625 -7.25 5.3125 C-6.59 5.3125 -5.93 5.3125 -5.25 5.3125 C-4.7859375 4.3534375 -4.7859375 4.3534375 -4.3125 3.375 C-2.77221215 0.38502947 -2.77221215 0.38502947 0 0 Z " fill="#E1DED4" transform="translate(809.25,456.6875)"/>
<path d="M0 0 C3.55486035 0.69363129 5.14390437 1.80499344 7.5625 4.5 C8.1875 8 8.1875 8 7.5625 11.5 C5.5 14 5.5 14 2.5625 15.5 C-1.125 15.4375 -1.125 15.4375 -4.4375 14.5 C-6.91788907 10.7794164 -6.90087203 8.90203429 -6.4375 4.5 C-4.4861167 1.68133524 -3.3624123 0.6897256 0 0 Z " fill="#E5E4DC" transform="translate(629.4375,1048.5)"/>
<path d="M0 0 C2.05859375 0.3359375 2.05859375 0.3359375 4.05859375 2.3359375 C4.73245984 9.29922044 4.73245984 9.29922044 2.43359375 12.8359375 C-0.66281221 14.79156232 -2.3399376 14.93618227 -5.94140625 14.3359375 C-8.31640625 12.7109375 -8.31640625 12.7109375 -9.94140625 10.3359375 C-10.41982796 7.05533149 -10.21793198 5.03646936 -9.00390625 1.9609375 C-6.0767282 -0.34532399 -3.63490041 -0.05968638 0 0 Z " fill="#E3E0D9" transform="translate(689.94140625,1028.6640625)"/>
<path d="M0 0 C2.4375 1.5625 2.4375 1.5625 4 4 C4.5 7.5625 4.5 7.5625 4 11 C2.5 12.9375 2.5 12.9375 0 14 C-2.80548018 14.34375449 -5.13809322 14.23079893 -8 14 C-10.41486943 11.58513057 -10.2961925 10.87292211 -10.3125 7.5625 C-10.32925781 6.78003906 -10.34601563 5.99757813 -10.36328125 5.19140625 C-9.40203966 -0.6070511 -5.08769192 -0.62480427 0 0 Z " fill="#DCD9D0" transform="translate(249,915)"/>
<path d="M0 0 C2.4375 0.9375 2.4375 0.9375 4 3 C4.44067049 6.04564668 4.49609528 8.95997427 4 12 C2 14 2 14 -1.3125 14.3125 C-5.26836729 13.97725701 -7.14334751 13.77008726 -10 11 C-10.78264608 7.42218934 -10.66421232 4.25028202 -8.9375 1 C-5.85873258 -0.58904125 -3.39844421 -0.35773097 0 0 Z " fill="#E3E0D8" transform="translate(865,862)"/>
<path d="M0 0 C1.875 1.5 1.875 1.5 3 4 C3.23364755 6.72069588 3.13706692 9.25866151 3 12 C-0.40424088 14.09491746 -3.03414842 14.49573145 -7 14 C-9.375 12.4375 -9.375 12.4375 -11 10 C-11.5625 6.4375 -11.5625 6.4375 -11 3 C-7.62007007 -0.08170082 -4.47969293 -0.6816924 0 0 Z " fill="#E7E5DF" transform="translate(903,683)"/>
<path d="M0 0 C1.8125 1.125 1.8125 1.125 3 3 C3.50030235 6.93094707 3.5996142 9.1005787 1.375 12.4375 C-1.71685231 14.47161336 -3.36367425 14.60605429 -7 14 C-9.375 12.4375 -9.375 12.4375 -11 10 C-11.73134328 4.04477612 -11.73134328 4.04477612 -9.6875 1.125 C-6.22221537 -1.18518975 -3.86782336 -1.16034701 0 0 Z " fill="#E6E3DB" transform="translate(204,563)"/>
<path d="M0 0 C2.4375 1.625 2.4375 1.625 4 4 C4.60024477 7.60146865 4.45562482 9.27859404 2.5 12.375 C-1.13251074 14.73613198 -3.71843297 14.2854378 -8 14 C-10.3297964 10.35969312 -10.3862557 7.24881273 -10 3 C-7.7773391 -1.05308751 -4.20075589 -0.5158823 0 0 Z " fill="#E5E3DC" transform="translate(877,562)"/>
<path d="M0 0 C2.4375 1.0625 2.4375 1.0625 4 3 C4.56988508 6.91795996 4.59460908 9.07240983 2.4375 12.4375 C-0.92759017 14.59460908 -3.08204004 14.56988508 -7 14 C-8.9375 12.4375 -8.9375 12.4375 -10 10 C-10.61818182 4.12727273 -10.61818182 4.12727273 -8.9375 1.0625 C-5.87116726 -0.61903731 -3.42486249 -0.36051184 0 0 Z " fill="#E7E5DD" transform="translate(717,381)"/>
<path d="M0 0 C2.4375 1.0625 2.4375 1.0625 4 3 C4.56988508 6.91795996 4.59460908 9.07240983 2.4375 12.4375 C-0.92759017 14.59460908 -3.08204004 14.56988508 -7 14 C-8.9375 12.4375 -8.9375 12.4375 -10 10 C-10.61818182 4.12727273 -10.61818182 4.12727273 -8.9375 1.0625 C-5.87116726 -0.61903731 -3.42486249 -0.36051184 0 0 Z " fill="#E4E1D9" transform="translate(231,508)"/>
<path d="M0 0 C6.37778364 -0.01047255 6.37778364 -0.01047255 9.00390625 2.05859375 C10.21793198 5.13412561 10.41982796 7.15298774 9.94140625 10.43359375 C8.31640625 12.80859375 8.31640625 12.80859375 5.94140625 14.43359375 C2.3050805 15.03964804 0.65825856 14.90520711 -2.43359375 12.87109375 C-4.64505656 9.55389953 -4.48519838 7.34413616 -4.05859375 3.43359375 C-2.05859375 0.43359375 -2.05859375 0.43359375 0 0 Z " fill="#E6E4DA" transform="translate(843.05859375,507.56640625)"/>
<path d="M0 0 C2.375 1 2.375 1 4 3 C4.56659452 5.77515685 4.5609375 8.22422681 4 11 C1.70259039 13.9406843 0.14587408 13.98208564 -3.5625 14.4375 C-7 14 -7 14 -8.9375 12.375 C-10.31565201 9.29442492 -10.48746608 7.34262452 -10 4 C-7.20125452 -0.09047416 -4.83066808 -0.70447243 0 0 Z " fill="#E7E4DC" transform="translate(792,960)"/>
<path d="M0 0 C2.4375 1.0625 2.4375 1.0625 4 3 C4.5625 6.4375 4.5625 6.4375 4 10 C1.57552876 12.70155367 0.02200012 13.82551218 -3.5625 14.4375 C-6.66251301 13.88108741 -7.9485701 13.43132433 -10 11 C-10.66976495 7.42792027 -10.65750013 4.2376473 -8.9375 1 C-5.85873258 -0.58904125 -3.39844421 -0.35773097 0 0 Z " fill="#ECEAE2" transform="translate(193,806)"/>
<path d="M0 0 C2.5 1.5625 2.5 1.5625 4 4 C4 7.75343683 3.82004247 10.02225706 1.375 12.9375 C-1.83037505 14.37148358 -4.53227365 14.20006114 -8 14 C-10.3297964 10.35969312 -10.3862557 7.24881273 -10 3 C-7.7773391 -1.05308751 -4.20075589 -0.5158823 0 0 Z " fill="#E6E4DD" transform="translate(217,863)"/>
<path d="M0 0 C2.86189924 2.62985336 3.88404096 4.27525599 4.5 8.125 C4 11 4 11 2.5625 12.9375 C-1.27581158 14.52899505 -5.01812533 14.07421771 -9 13 C-10.56430248 9.87139505 -10.35627284 7.44397075 -10 4 C-7.01510153 0.67397028 -4.49084091 -1.0363479 0 0 Z " fill="#E3E0D8" transform="translate(289,960)"/>
<path d="M0 0 C2.69500656 2.41859563 3.80636871 4.00763965 4.5 7.5625 C3.81761445 10.88912957 2.75740782 12.04078918 0 14 C-3.63632575 14.60605429 -5.28314769 14.47161336 -8.375 12.4375 C-10.5996142 9.1005787 -10.50030235 6.93094707 -10 3 C-7.77944313 -1.04925076 -4.19686267 -0.58903336 0 0 Z " fill="#E7E4DC" transform="translate(267,458)"/>
<path d="M0 0 C2 2 2 2 2.3125 5.9375 C2.22787031 8.39176089 2.10592691 9.78814617 1 12 C-2.41105656 13.70552828 -5.21715403 13.36027104 -9 13 C-11.28192506 9.57711241 -11.48901805 7.8649533 -11.37890625 3.87890625 C-11 2 -11 2 -8.875 -0.0625 C-5.43178802 -1.18528652 -3.4593267 -0.99936105 0 0 Z " fill="#E6E4DC" transform="translate(181,746)"/>
<path d="M0 0 C2.4375 1.625 2.4375 1.625 4 4 C4.44912849 7.14389944 4.504106 9.05480125 3 11.875 C-0.22174836 13.68723346 -3.39862897 13.5327028 -7 13 C-9 11.9375 -9 11.9375 -10 10 C-10.36528977 6.5906288 -10.6140629 4.11976176 -8.9375 1.0625 C-5.8347167 -0.63902633 -3.46230815 -0.42519574 0 0 Z " fill="#E5E3DC" transform="translate(744,999)"/>
<path d="M0 0 C2.375 1.625 2.375 1.625 4 4 C4.45106392 7.15744746 4.71076885 9.05007307 2.7578125 11.66015625 C0.52451869 13.36242242 -0.77871464 13.40251682 -3.5625 13.375 C-4.74005859 13.38660156 -4.74005859 13.38660156 -5.94140625 13.3984375 C-6.62074219 13.26695312 -7.30007813 13.13546875 -8 13 C-10.32749345 9.50875983 -10.50299316 8.10777749 -10 4 C-7.21921757 -0.06422047 -4.81255755 -0.80209293 0 0 Z " fill="#E9E7E0" transform="translate(338,999)"/>
<path d="M0 0 C1.98768584 2.33337033 2.00111449 4.01092198 2.3125 7.0625 C2 10 2 10 0.9375 11.875 C-2.1069286 13.64273274 -4.5631012 13.36823916 -8 13 C-9.9375 12 -9.9375 12 -11 10 C-11.46000079 7.23999526 -11.50420748 4.75595226 -11 2 C-7.95902452 -2.01408763 -4.52835262 -1.25787573 0 0 Z " fill="#E4E1D8" transform="translate(834,915)"/>
<path d="M0 0 C0.99 0.66 1.98 1.32 3 2 C3.64 8.72 3.64 8.72 2 12 C-1.41105656 13.70552828 -4.21715403 13.36027104 -8 13 C-10.67927341 8.98108988 -10.15601248 6.75838077 -10 2 C-6.59677126 -0.09429461 -3.96047946 -0.33706208 0 0 Z " fill="#EAE8E1" transform="translate(178,684)"/>
<path d="M0 0 C0 0.33 0 0.66 0 1 C-1.01199463 1.04487549 -2.02398926 1.08975098 -3.06665039 1.13598633 C-6.89732917 1.30895659 -10.72713912 1.49725339 -14.55688477 1.68969727 C-16.20024617 1.77024007 -17.84380486 1.84687332 -19.48754883 1.91918945 C-37.51950173 2.11312526 -37.51950173 2.11312526 -54 8 C-57.1875 8.125 -57.1875 8.125 -60 8 C-59 6 -59 6 -55.5625 4.5625 C-37.32352105 -0.97130786 -18.84134404 -0.33824913 0 0 Z " fill="#ABA39A" transform="translate(385,664)"/>
<path d="M0 0 C3.60409539 -0.05906119 7.20806309 -0.09394639 10.8125 -0.125 C11.81732422 -0.14175781 12.82214844 -0.15851562 13.85742188 -0.17578125 C19.9381809 -0.21488581 25.54093365 0.27437944 31.48510742 1.57910156 C35.00884785 2.16884319 38.36010411 1.96752402 41.90625 1.6796875 C44 2 44 2 45.78125 4.0078125 C46.1834375 4.66523437 46.585625 5.32265625 47 6 C46.35933594 5.8659375 45.71867187 5.731875 45.05859375 5.59375 C30.08040562 2.68610684 15.24308975 1.39572565 0 1 C0 0.67 0 0.34 0 0 Z " fill="#B7B1AA" transform="translate(361,677)"/>
<path d="M0 0 C2.97 0 5.94 0 9 0 C9 0.99 9 1.98 9 3 C7.39125 2.938125 7.39125 2.938125 5.75 2.875 C2.34252515 2.9885825 0.79260369 3.21273364 -2 5 C-1.67 6.98 -1.34 8.96 -1 11 C2.96 11.99 2.96 11.99 7 13 C7 13.66 7 14.32 7 15 C3.88601543 15.21231713 1.54695926 15.21590497 -1.375 14.0625 C-3.99520534 10.73685476 -3.30779383 7.0782683 -3 3 C-2.34 3 -1.68 3 -1 3 C-0.67 2.01 -0.34 1.02 0 0 Z " fill="#B1A9A0" transform="translate(503,1060)"/>
<path d="M0 0 C0.33 0.99 0.66 1.98 1 3 C0.113125 3.70125 -0.77375 4.4025 -1.6875 5.125 C-3.94595222 6.99021583 -5.81216451 8.88898272 -7.625 11.1875 C-9.75350346 13.7080962 -10.97159306 14.8783678 -14 16 C-12.34136495 11.67495164 -9.128959 8.90581175 -5.875 5.75 C-5.31167969 5.19570313 -4.74835937 4.64140625 -4.16796875 4.0703125 C-2.78313972 2.70895515 -1.39216796 1.35385141 0 0 Z " fill="#D1CAC2" transform="translate(534,393)"/>
<path d="M0 0 C0.66 0.33 1.32 0.66 2 1 C0.55922954 4.36179774 -1.24750021 6.59156268 -4 9 C-4.66 9 -5.32 9 -6 9 C-6.33 9.99 -6.66 10.98 -7 12 C-8.5625 13.6875 -8.5625 13.6875 -10 15 C-10.66 14.67 -11.32 14.34 -12 14 C-11.55269531 13.49210938 -11.10539063 12.98421875 -10.64453125 12.4609375 C-7.03713058 8.35357725 -3.47885075 4.21678879 0 0 Z " fill="#CEC7BF" transform="translate(651,574)"/>
<path d="M0 0 C-1.31061591 4.23429756 -2.94356259 8.07407404 -5 12 C-6.60031344 8.79937313 -5.03173691 6.27728194 -4 3 C-6.31 3.66 -8.62 4.32 -11 5 C-11 4.34 -11 3.68 -11 3 C-4.5 0 -4.5 0 0 0 Z " fill="#80766E" transform="translate(451,774)"/>
<path d="M0 0 C-3.23461997 2.15641331 -5.67072961 2.81100973 -9.4375 3.6875 C-10.57058594 3.95949219 -11.70367187 4.23148438 -12.87109375 4.51171875 C-15.74916889 4.96085657 -17.31025087 4.98469931 -20 4 C-19.34 4 -18.68 4 -18 4 C-18 3.34 -18 2.68 -18 2 C-11.84629161 0.176679 -6.40353322 -0.2361959 0 0 Z " fill="#63554C" transform="translate(415,725)"/>
<path d="M0 0 C0.66 0.33 1.32 0.66 2 1 C0.33333333 2.66666667 -1.33333333 4.33333333 -3 6 C-3.45375 6.5775 -3.9075 7.155 -4.375 7.75 C-6.9752158 9.750166 -9.8107651 9.69912878 -13 10 C-8.75259665 6.54898478 -4.38894929 3.26720791 0 0 Z " fill="#CFC9C0" transform="translate(291,687)"/>
<path d="M0 0 C0 3.68812885 -0.91157391 4.99248443 -3 8 C-5.26171875 10.23828125 -5.26171875 10.23828125 -7.6875 12.3125 C-8.49574219 13.00988281 -9.30398438 13.70726562 -10.13671875 14.42578125 C-10.75160156 14.94527344 -11.36648438 15.46476563 -12 16 C-12.66 15.67 -13.32 15.34 -14 15 C-12.98679687 14.00419922 -12.98679687 14.00419922 -11.953125 12.98828125 C-11.06109375 12.10527344 -10.1690625 11.22226562 -9.25 10.3125 C-8.36828125 9.44238281 -7.4865625 8.57226562 -6.578125 7.67578125 C-4.21194702 5.21997532 -2.08107444 2.69858952 0 0 Z " fill="#CCC5BB" transform="translate(423,816)"/>
<path d="M0 0 C1.19625 0.33 2.3925 0.66 3.625 1 C7.15791497 1.89265823 10.34079109 2.18296045 14 2 C14 2.66 14 3.32 14 4 C14.61875 4.12375 15.2375 4.2475 15.875 4.375 C18 5 18 5 20 7 C15.59773334 6.35201841 11.44537086 5.3520266 7.1875 4.0625 C6.04667969 3.72347656 4.90585937 3.38445313 3.73046875 3.03515625 C1 2 1 2 0 0 Z " fill="#A0968D" transform="translate(653,736)"/>
<path d="M0 0 C0 3.88694981 -0.97604188 5.67026245 -3 9 C-5.21014918 11.16594619 -7.55238794 13.10896822 -10 15 C-10 11.49250024 -9.5242631 11.11317894 -7.25 8.625 C-6.70601562 8.01785156 -6.16203125 7.41070313 -5.6015625 6.78515625 C-5.07304688 6.19605469 -4.54453125 5.60695313 -4 5 C-2.65807132 3.34024611 -1.32090525 1.67653359 0 0 Z " fill="#C0B8AF" transform="translate(699,578)"/>
<path d="M0 0 C0 4.31618166 -2.13270348 5.92789659 -5 9 C-5.66 9 -6.32 9 -7 9 C-7.33 9.99 -7.66 10.98 -8 12 C-10.0625 13.1875 -10.0625 13.1875 -12 14 C-10.41332422 10.09714233 -7.86649519 7.66479018 -4.875 4.75 C-3.96492188 3.85796875 -3.05484375 2.9659375 -2.1171875 2.046875 C-1.41851562 1.37140625 -0.71984375 0.6959375 0 0 Z " fill="#CEC8C1" transform="translate(386,800)"/>
<path d="M0 0 C2.83320671 4.24981006 2.53392409 8.00897044 2 13 C0.5 16.625 0.5 16.625 -1 19 C-2.67666168 15.64667665 -1.53482999 11.98935125 -1.0625 8.375 C-0.96259766 7.57320312 -0.86269531 6.77140625 -0.75976562 5.9453125 C-0.5119582 3.96285309 -0.25668193 1.98132991 0 0 Z " fill="#A89F97" transform="translate(354,619)"/>
<path d="M0 0 C-1 1 -1 1 -3.5625 1.0625 C-4.7690625 1.0315625 -4.7690625 1.0315625 -6 1 C-6 1.66 -6 2.32 -6 3 C-8.52053595 4.26026798 -9.8542098 3.91874445 -12.625 3.5625 C-13.85089844 3.40974609 -13.85089844 3.40974609 -15.1015625 3.25390625 C-16.04128906 3.12822266 -16.04128906 3.12822266 -17 3 C-16.67 2.01 -16.34 1.02 -16 0 C-16 0.66 -16 1.32 -16 2 C-15.01257813 1.77183594 -14.02515625 1.54367187 -13.0078125 1.30859375 C-11.72648437 1.02113281 -10.44515625 0.73367188 -9.125 0.4375 C-7.84882813 0.14746094 -6.57265625 -0.14257812 -5.2578125 -0.44140625 C-2 -1 -2 -1 0 0 Z " fill="#65594F" transform="translate(355,881)"/>
<path d="M0 0 C1.76627654 3.53255309 0.26352722 7.10806173 -0.8125 10.75 C-2.219358 13.41562569 -3.31853184 13.80340163 -6 15 C-4.36041242 9.76727367 -2.61047965 4.84803364 0 0 Z " fill="#65584F" transform="translate(583,953)"/>
<path d="M0 0 C1.10844919 3.32534757 0.84454356 5.62182575 0 9 C3.3 8.67 6.6 8.34 10 8 C6.96474514 10.02350324 5.80573798 10.32124018 2.3125 10.625 C1.50425781 10.69976563 0.69601562 10.77453125 -0.13671875 10.8515625 C-1.05904297 10.92503906 -1.05904297 10.92503906 -2 11 C-1.125 3.375 -1.125 3.375 0 0 Z " fill="#999189" transform="translate(606,647)"/>
<path d="M0 0 C1.46067199 0.45082469 2.91848032 0.91093537 4.375 1.375 C5.18710937 1.63023437 5.99921875 1.88546875 6.8359375 2.1484375 C9 3 9 3 11 5 C7.59068103 6.13643966 6.99664544 5.86747764 3.8125 4.5625 C3.09707031 4.27503906 2.38164063 3.98757813 1.64453125 3.69140625 C1.10183594 3.46324219 0.55914063 3.23507812 0 3 C0 2.01 0 1.02 0 0 Z " fill="#53463D" transform="translate(626,774)"/>
<path d="M0 0 C0 5.13226977 -3.31996098 8.28905012 -6.75 11.875 C-7.86375 12.926875 -7.86375 12.926875 -9 14 C-9.66 13.67 -10.32 13.34 -11 13 C-10.54109375 12.48050781 -10.0821875 11.96101562 -9.609375 11.42578125 C-6.31617392 7.68287834 -3.07047811 3.93021199 0 0 Z " fill="#6B6057" transform="translate(710,586)"/>
<path d="M0 0 C0.33 0 0.66 0 1 0 C1 2.31 1 4.62 1 7 C-5.625 7.25 -5.625 7.25 -9 5 C-7.329375 4.87625 -7.329375 4.87625 -5.625 4.75 C-1.94246056 4.42126213 -1.94246056 4.42126213 -0.5625 1.9375 C-0.376875 1.298125 -0.19125 0.65875 0 0 Z " fill="#C0BAB3" transform="translate(735,876)"/>
<path d="M0 0 C0.66 0.33 1.32 0.66 2 1 C-0.64 3.64 -3.28 6.28 -6 9 C-6.99 8.67 -7.98 8.34 -9 8 C-7.87811441 6.85111717 -6.75238316 5.70598863 -5.625 4.5625 C-4.99851562 3.92441406 -4.37203125 3.28632812 -3.7265625 2.62890625 C-2 1 -2 1 0 0 Z " fill="#D6D1CA" transform="translate(689,592)"/>
<path d="M0 0 C2.31 0 4.62 0 7 0 C7.33 0.66 7.66 1.32 8 2 C6.906875 2.309375 5.81375 2.61875 4.6875 2.9375 C2.44592006 3.58337897 0.2130649 4.2623117 -2 5 C-1.34 3.35 -0.68 1.7 0 0 Z " fill="#CCC7BF" transform="translate(565,1060)"/>
<path d="M0 0 C0.66 0.33 1.32 0.66 2 1 C2.48259861 8.23897912 2.48259861 8.23897912 0.375 11.5625 C-2 13 -2 13 -5.25 12.75 C-6.61125 12.37875 -6.61125 12.37875 -8 12 C-8 11.67 -8 11.34 -8 11 C-6.865625 10.690625 -5.73125 10.38125 -4.5625 10.0625 C-1.21224901 9.37075469 -1.21224901 9.37075469 0 8 C0.07148199 6.64756083 0.08399454 5.29165633 0.0625 3.9375 C0.041875 2.638125 0.02125 1.33875 0 0 Z " fill="#7E746C" transform="translate(835,917)"/>
<path d="M0 0 C0 0.33 0 0.66 0 1 C-6.20514474 3.13619737 -11.42684522 4.36517527 -18 4 C-18 3.67 -18 3.34 -18 3 C-16.12743583 2.49095343 -14.25180659 1.99317545 -12.375 1.5 C-11.33085938 1.2215625 -10.28671875 0.943125 -9.2109375 0.65625 C-6.04312582 0.00881404 -3.22258533 -0.1161292 0 0 Z " fill="#B5AEA4" transform="translate(739,741)"/>
<path d="M0 0 C0 3.8445159 -1.01662434 5.85272839 -3.5 8.75 C-5 10 -5 10 -7 10 C-5.33248852 6.05860922 -2.77289351 3.2107188 0 0 Z " fill="#C7C0B6" transform="translate(433,804)"/>
<path d="M0 0 C0.33 0 0.66 0 1 0 C1.16682272 4.92127034 1.24828052 8.50343896 -1 13 C-1.33 13 -1.66 13 -2 13 C-2.16682272 8.07872966 -2.24828052 4.49656104 0 0 Z " fill="#5F544C" transform="translate(497,485)"/>
<path d="M0 0 C0.66 0.66 1.32 1.32 2 2 C1.96712417 4.72869407 1.43602229 7.2966618 1 10 C0.01 10 -0.98 10 -2 10 C-1.67 9.34 -1.34 8.68 -1 8 C-1 7.01 -1 6.02 -1 5 C-1 2 -1 2 0 0 Z " fill="#C0BAB3" transform="translate(604,342)"/>
<path d="M0 0 C1.36741555 2.25221384 2.04066478 3.52557758 1.8125 6.1875 C1.4103125 7.0846875 1.4103125 7.0846875 1 8 C0.01 8.33 -0.98 8.66 -2 9 C-2.125 5.625 -2.125 5.625 -2 2 C-1.34 1.34 -0.68 0.68 0 0 Z " fill="#D2CEC6" transform="translate(894,684)"/>
<path d="M0 0 C5.28497409 -0.44041451 5.28497409 -0.44041451 8 0 C10.5 2.5 10.5 2.5 12 5 C10.56068883 4.54738642 9.12361001 4.08767021 7.6875 3.625 C6.88699219 3.36976563 6.08648437 3.11453125 5.26171875 2.8515625 C3 2 3 2 0 0 Z " fill="#BFB7AD" transform="translate(415,685)"/>
<path d="M0 0 C0.66 0.33 1.32 0.66 2 1 C1.23883449 2.15227823 0.46567307 3.2966386 -0.3125 4.4375 C-0.74175781 5.07558594 -1.17101562 5.71367188 -1.61328125 6.37109375 C-3 8 -3 8 -6 9 C-4.68775452 5.06326356 -3.08089673 2.77280706 0 0 Z " fill="#5A4D44" transform="translate(640,611)"/>
<path d="M0 0 C0 3.65351863 -0.88942301 5.06026776 -3 8 C-5.109375 9.15234375 -5.109375 9.15234375 -7 10 C-6.02223933 8.51990357 -5.0427506 7.04094856 -4.0625 5.5625 C-3.51722656 4.73878906 -2.97195313 3.91507813 -2.41015625 3.06640625 C-1 1 -1 1 0 0 Z " fill="#695D53" transform="translate(559,998)"/>
<path d="M0 0 C5.53846154 -0.36923077 5.53846154 -0.36923077 7.875 1.5 C8.24625 1.995 8.6175 2.49 9 3 C7.3125 3.6875 7.3125 3.6875 5 4 C2.25 2.625 2.25 2.625 0 1 C0 0.67 0 0.34 0 0 Z " fill="#CDC7BD" transform="translate(306,730)"/>
<path d="M0 0 C5.75 -0.125 5.75 -0.125 8 1 C8 1.66 8 2.32 8 3 C8.66 3 9.32 3 10 3 C10 3.66 10 4.32 10 5 C8.51800098 4.55090939 7.03944764 4.09043436 5.5625 3.625 C4.73878906 3.36976563 3.91507813 3.11453125 3.06640625 2.8515625 C1 2 1 2 0 0 Z " fill="#776B62" transform="translate(643,717)"/>
<path d="M0 0 C-0.66 2.31 -1.32 4.62 -2 7 C-2.33 6.34 -2.66 5.68 -3 5 C-2.67 4.01 -2.34 3.02 -2 2 C-3.98 2.33 -5.96 2.66 -8 3 C-8 2.34 -8 1.68 -8 1 C-5.07175348 0.02391783 -3.04386724 -0.08226668 0 0 Z " fill="#7D726A" transform="translate(716,548)"/>
<path d="M0 0 C1.670625 0.061875 1.670625 0.061875 3.375 0.125 C3.705 0.785 4.035 1.445 4.375 2.125 C3.4675 2.021875 2.56 1.91875 1.625 1.8125 C-1.82228131 1.78548792 -1.82228131 1.78548792 -4 4.625 C-4.53625 5.45 -5.0725 6.275 -5.625 7.125 C-5.75 4.75 -5.75 4.75 -5.625 2.125 C-3.625 0.125 -3.625 0.125 0 0 Z " fill="#F5F4EA" transform="translate(829.625,915.875)"/>
<path d="M0 0 C0 3.17370278 -0.30933342 4.3794668 -2 7 C-4.125 8.25 -4.125 8.25 -6 9 C-2.25 2.25 -2.25 2.25 0 0 Z " fill="#685D54" transform="translate(445,810)"/>
<path d="M0 0 C0 3.65351863 -0.88942301 5.06026776 -3 8 C-5.1875 9.3125 -5.1875 9.3125 -7 10 C-5.33248852 6.05860922 -2.77289351 3.2107188 0 0 Z " fill="#BEB7AE" transform="translate(525,740)"/>
<path d="M0 0 C0.66 0.33 1.32 0.66 2 1 C1.34 2.32 0.68 3.64 0 5 C-2.64 5 -5.28 5 -8 5 C-5.77077045 2.77077045 -3.90864722 2.11871047 -1 1 C-0.67 0.67 -0.34 0.34 0 0 Z " fill="#C5BFB6" transform="translate(767,715)"/>
<path d="M0 0 C-0.33 0.99 -0.66 1.98 -1 3 C-4.0625 4.1875 -4.0625 4.1875 -7 5 C-7.66 4.34 -8.32 3.68 -9 3 C-5.55930376 0.70620251 -4.27709699 0 0 0 Z " fill="#D2CCC2" transform="translate(655,673)"/>
<path d="M0 0 C0.33 0.66 0.66 1.32 1 2 C0.0625 4.625 0.0625 4.625 -1 7 C0.32 6.67 1.64 6.34 3 6 C1.6875 7.5 1.6875 7.5 0 9 C-0.99 9 -1.98 9 -3 9 C-2.44271087 5.65626525 -1.64826111 2.96687001 0 0 Z " fill="#9C948C" transform="translate(628,629)"/>
<path d="M0 0 C1 3 1 3 0.25 5.625 C-1 8 -1 8 -4 9 C-2.80100302 5.9168649 -1.52299523 2.93720508 0 0 Z " fill="#645850" transform="translate(581,621)"/>
<path d="M0 0 C0.97140086 3.02213602 1.19248372 5.0187907 0 8 C-0.99 8.66 -1.98 9.32 -3 10 C-2.39009109 6.44219804 -1.4216319 3.3171411 0 0 Z " fill="#D0CAC2" transform="translate(347,855)"/>
<path d="M0 0 C3.3 0.99 6.6 1.98 10 3 C8.02 3.99 8.02 3.99 6 5 C5.01 4.67 4.02 4.34 3 4 C3 3.34 3 2.68 3 2 C2.01 1.67 1.02 1.34 0 1 C0 0.67 0 0.34 0 0 Z " fill="#BFB8AE" transform="translate(327,724)"/>
<path d="M0 0 C2.31 0 4.62 0 7 0 C7.33 1.32 7.66 2.64 8 4 C2.25 2.25 2.25 2.25 0 0 Z " fill="#C7C1B8" transform="translate(294,724)"/>
<path d="M0 0 C0.66 0.33 1.32 0.66 2 1 C0.875 2.9375 0.875 2.9375 -1 5 C-4.1875 5.75 -4.1875 5.75 -7 6 C-4.74259377 3.66475218 -2.7194239 1.81294927 0 0 Z " fill="#BBB3AA" transform="translate(446,708)"/>
<path d="M0 0 C0 0.66 0 1.32 0 2 C-2.31 3.32 -4.62 4.64 -7 6 C-7.66 5.34 -8.32 4.68 -9 4 C-2.25 0 -2.25 0 0 0 Z " fill="#BBB3AA" transform="translate(307,679)"/>
<path d="M0 0 C1.875 0.8125 1.875 0.8125 3.875 3.8125 C-1.125 2.8125 -1.125 2.8125 -6.125 1.8125 C-3.90523089 0.46478304 -2.62352224 -0.23148726 0 0 Z " fill="#D0CAC1" transform="translate(404.125,679.1875)"/>
<path d="M0 0 C2.31 0 4.62 0 7 0 C4.13700494 2.86299506 2.34147716 2.99421225 -1.6875 3.0625 C-2.780625 3.041875 -3.87375 3.02125 -5 3 C-5 2.67 -5 2.34 -5 2 C-3.35 2 -1.7 2 0 2 C0 1.34 0 0.68 0 0 Z " fill="#CEC9C1" transform="translate(342,641)"/>
<path d="M0 0 C0.33 0.66 0.66 1.32 1 2 C-1.84936103 5.00765886 -4.23511958 7.27845212 -8 9 C-7.04270084 7.87411986 -6.08412105 6.7493285 -5.125 5.625 C-4.59132813 4.99851562 -4.05765625 4.37203125 -3.5078125 3.7265625 C-2.38567993 2.44163349 -1.20628025 1.20628025 0 0 Z " fill="#6B6057" transform="translate(694,605)"/>
<path d="M0 0 C0.66 0.33 1.32 0.66 2 1 C0.35 2.98 -1.3 4.96 -3 7 C-3.33 5.68 -3.66 4.36 -4 3 C-2.68 2.01 -1.36 1.02 0 0 Z " fill="#E0DBD2" transform="translate(636,593)"/>
<path d="M0 0 C0 3.65351863 -0.88942301 5.06026776 -3 8 C-5.109375 9.15234375 -5.109375 9.15234375 -7 10 C-6.02223933 8.51990357 -5.0427506 7.04094856 -4.0625 5.5625 C-3.51722656 4.73878906 -2.97195313 3.91507813 -2.41015625 3.06640625 C-1 1 -1 1 0 0 Z " fill="#665950" transform="translate(521,250)"/>
<path d="M0 0 C-0.9590625 0.5878125 -0.9590625 0.5878125 -1.9375 1.1875 C-4.43778819 3.38472296 -4.64950425 4.75791433 -5 8 C-5.33 8 -5.66 8 -6 8 C-6 5.36 -6 2.72 -6 0 C-3.50907189 -1.24546405 -2.58919267 -0.7767578 0 0 Z " fill="#F8F7F1" transform="translate(742,1001)"/>
<path d="M0 0 C0.66 0 1.32 0 2 0 C1.45276317 3.37462715 0.9451 5.08235 -1 8 C-1.66 8 -2.32 8 -3 8 C-1.125 2.25 -1.125 2.25 0 0 Z " fill="#5A4D44" transform="translate(571,978)"/>
<path d="M0 0 C0.33 0.99 0.66 1.98 1 3 C0 4 0 4 -2.06640625 4.09765625 C-2.89011719 4.08605469 -3.71382813 4.07445312 -4.5625 4.0625 C-5.38878906 4.05347656 -6.21507812 4.04445313 -7.06640625 4.03515625 C-7.70449219 4.02355469 -8.34257812 4.01195312 -9 4 C-9.33 3.34 -9.66 2.68 -10 2 C-8.3603125 2.061875 -8.3603125 2.061875 -6.6875 2.125 C-2.91107771 2.32074666 -2.91107771 2.32074666 0 0 Z " fill="#817870" transform="translate(292,971)"/>
<path d="M0 0 C0.66 0 1.32 0 2 0 C2.66 2.64 3.32 5.28 4 8 C2.68 7.67 1.36 7.34 0 7 C0 4.69 0 2.38 0 0 Z " fill="#F3F2EB" transform="translate(240,919)"/>
<path d="M0 0 C1 2 1 2 0.44140625 3.9453125 C0.15136719 4.66460938 -0.13867188 5.38390625 -0.4375 6.125 C-0.72496094 6.84945312 -1.01242187 7.57390625 -1.30859375 8.3203125 C-1.53675781 8.87460937 -1.76492188 9.42890625 -2 10 C-2.66 10 -3.32 10 -4 10 C-3.29445932 6.33118845 -1.72264494 3.29549466 0 0 Z " fill="#311E15" transform="translate(364,853)"/>
<path d="M0 0 C0.33 1.32 0.66 2.64 1 4 C-1.97 6.475 -1.97 6.475 -5 9 C-3.7508258 5.54074837 -2.32472205 2.85306797 0 0 Z " fill="#675B51" transform="translate(375,833)"/>
<path d="M0 0 C0.6875 1.75 0.6875 1.75 1 4 C-0.3125 6.25 -0.3125 6.25 -2 8 C-2.66 8 -3.32 8 -4 8 C-2.87548273 5.0280615 -1.77706209 2.66559313 0 0 Z " fill="#C8C1B9" transform="translate(438,796)"/>
<path d="M0 0 C0 0.66 0 1.32 0 2 C-2 3.625 -2 3.625 -4 5 C-4.66 4.67 -5.32 4.34 -6 4 C-6.33 4.66 -6.66 5.32 -7 6 C-7.66 5.34 -8.32 4.68 -9 4 C-2.25 0 -2.25 0 0 0 Z " fill="#65594F" transform="translate(440,729)"/>
<path d="M0 0 C-0.99 1.485 -0.99 1.485 -2 3 C-4.64 2.67 -7.28 2.34 -10 2 C-6.70021068 -0.19985954 -3.76967739 -1.88483869 0 0 Z " fill="#C1BAB0" transform="translate(750,725)"/>
<path d="M0 0 C0.66 0.33 1.32 0.66 2 1 C1.2884375 2.175625 1.2884375 2.175625 0.5625 3.375 C-0.33898023 4.88948678 -1.21179485 6.4235897 -2 8 C-2.66 7.34 -3.32 6.68 -4 6 C-4 5.01 -4 4.02 -4 3 C-2 1.3125 -2 1.3125 0 0 Z " fill="#C3BBB2" transform="translate(599,700)"/>
<path d="M0 0 C0 3.52032428 -0.70351351 4.4385343 -3 7 C-3.66 7 -4.32 7 -5 7 C-5.33 7.66 -5.66 8.32 -6 9 C-5.52797514 4.75177626 -3.03344482 2.80010291 0 0 Z " fill="#645951" transform="translate(505,269)"/>
<path d="M0 0 C1 2 1 2 0.25 4.5625 C-1 7 -1 7 -4 8 C-2.87548273 5.0280615 -1.77706209 2.66559313 0 0 Z " fill="#B8B1A7" transform="translate(555,979)"/>
<path d="M0 0 C0 3.13751221 -0.35179805 4.39757586 -2 7 C-2.99 7.33 -3.98 7.66 -5 8 C-3.8141763 4.62496331 -2.72426311 2.35277269 0 0 Z " fill="#BCB5AC" transform="translate(371,816)"/>
<path d="M0 0 C0.66 0.33 1.32 0.66 2 1 C1.01 2.485 1.01 2.485 0 4 C-0.66 4 -1.32 4 -2 4 C-2 6.31 -2 8.62 -2 11 C-2.33 11 -2.66 11 -3 11 C-3.36923077 3.49230769 -3.36923077 3.49230769 -1.5 1 C-1.005 0.67 -0.51 0.34 0 0 Z " fill="#B7AFA5" transform="translate(186,806)"/>
<path d="M0 0 C0.33 0.66 0.66 1.32 1 2 C2.33076989 2.34342449 3.66431979 2.67619874 5 3 C5.66 3.66 6.32 4.32 7 5 C2.78087253 4.5205537 0.20336822 3.83374881 -3 1 C-2.01 0.67 -1.02 0.34 0 0 Z " fill="#C1BAB1" transform="translate(666,738)"/>
<path d="M0 0 C0 0.66 0 1.32 0 2 C-0.99 2 -1.98 2 -3 2 C-3.33 2.99 -3.66 3.98 -4 5 C-5.65 5 -7.3 5 -9 5 C-2.87096774 0 -2.87096774 0 0 0 Z " fill="#5E5248" transform="translate(772,729)"/>
<path d="M0 0 C0.66 0.33 1.32 0.66 2 1 C-0.52788007 3.79872437 -2.20411134 5.45773019 -6 6 C-4 4 -2 2 0 0 Z " fill="#BDB5AD" transform="translate(291,687)"/>
<path d="M0 0 C0 3.99904969 -1.72586967 5.80200422 -4 9 C-4.66 8.67 -5.32 8.34 -6 8 C-4.02 5.36 -2.04 2.72 0 0 Z " fill="#6E625A" transform="translate(559,659)"/>
<path d="M0 0 C2.31 0.66 4.62 1.32 7 2 C7 2.99 7 3.98 7 5 C3.34683329 3.75023244 2.21934164 3.32901247 0 0 Z " fill="#C3BDB4" transform="translate(411,631)"/>
<path d="M0 0 C0.66 0 1.32 0 2 0 C2.33 1.65 2.66 3.3 3 5 C0.5625 4.625 0.5625 4.625 -2 4 C-2.33 3.34 -2.66 2.68 -3 2 C-2.01 2 -1.02 2 0 2 C0 1.34 0 0.68 0 0 Z " fill="#584940" transform="translate(446,629)"/>
<path d="M0 0 C2.3431213 0.25561323 4.67843403 0.59270772 7 1 C7.33 1.66 7.66 2.32 8 3 C5.03 2.505 5.03 2.505 2 2 C1.67 2.99 1.34 3.98 1 5 C0.67 3.35 0.34 1.7 0 0 Z " fill="#817871" transform="translate(360,548)"/>
<path d="M0 0 C0.66 0.33 1.32 0.66 2 1 C2 2.98 2 4.96 2 7 C0.68 7.33 -0.64 7.66 -2 8 C-1.34 5.36 -0.68 2.72 0 0 Z " fill="#F5F4EF" transform="translate(232,512)"/>
</svg>
