<?xml version="1.0" standalone="no"?>
<!DOCTYPE svg PUBLIC "-//W3C//DTD SVG 20010904//EN"
 "http://www.w3.org/TR/2001/REC-SVG-20010904/DTD/svg10.dtd">
<svg version="1.0" xmlns="http://www.w3.org/2000/svg"
 width="500.000000pt" height="500.000000pt" viewBox="0 0 500.000000 500.000000"
 preserveAspectRatio="xMidYMid meet">

<g transform="translate(0.000000,500.000000) scale(0.100000,-0.100000)"
fill="#000000" stroke="none">
<path d="M2466 4358 c-23 -48 -61 -103 -100 -145 l-62 -67 57 -58 c36 -38 71
-87 95 -138 22 -43 42 -79 45 -79 3 -1 15 23 27 52 26 61 99 161 142 195 l30
24 -64 69 c-54 58 -113 154 -128 209 -3 8 -21 -20 -42 -62z m54 -59 c0 -13 43
-73 84 -116 l30 -33 -32 -37 c-17 -21 -46 -61 -64 -90 -18 -29 -35 -52 -38
-52 -3 0 -20 23 -38 52 -18 29 -46 69 -64 89 l-31 37 35 39 c19 21 49 59 67
85 29 42 51 54 51 26z"/>
<path d="M2254 3906 c-8 -21 3 -36 27 -36 15 0 20 6 17 22 -4 27 -35 37 -44
14z"/>
<path d="M2707 3914 c-4 -4 -7 -16 -7 -26 0 -13 7 -18 26 -18 21 0 25 4 22 22
-3 23 -27 35 -41 22z"/>
<path d="M2040 3854 c-11 -12 -10 -18 3 -32 16 -15 18 -15 34 0 13 14 14 20 3
32 -7 9 -16 16 -20 16 -4 0 -13 -7 -20 -16z"/>
<path d="M2915 3850 c-8 -13 13 -40 30 -40 15 0 28 27 19 41 -7 12 -41 11 -49
-1z"/>
<path d="M1842 3771 c-20 -12 -10 -46 13 -46 14 0 20 7 20 24 0 27 -13 35 -33
22z"/>
<path d="M3131 3770 c-19 -11 -9 -45 14 -45 13 0 21 8 23 21 3 23 -17 37 -37
24z"/>
<path d="M2479 3688 c-144 -136 -228 -402 -199 -628 21 -164 81 -303 171 -401
l49 -54 51 55 c60 66 121 185 150 295 30 112 30 289 0 400 -34 128 -87 229
-169 323 l-29 32 -24 -22z m53 -82 c157 -196 192 -516 84 -760 -25 -57 -103
-176 -115 -176 -14 0 -81 99 -110 161 -46 97 -63 172 -68 300 -6 136 14 239
71 354 35 70 92 155 104 155 4 0 19 -15 34 -34z"/>
<path d="M1644 3645 c-4 -9 -2 -21 4 -27 15 -15 44 -1 40 19 -4 23 -36 29 -44
8z"/>
<path d="M3314 3645 c-4 -9 -2 -21 4 -27 15 -15 44 -1 40 19 -4 23 -36 29 -44
8z"/>
<path d="M1477 3514 c-12 -12 -8 -42 6 -47 21 -8 39 8 35 29 -3 19 -29 30 -41
18z"/>
<path d="M3484 3506 c-9 -24 4 -48 23 -44 12 2 18 12 18 28 0 29 -32 41 -41
16z"/>
<path d="M1337 3344 c-4 -4 -7 -16 -7 -26 0 -14 6 -19 23 -16 14 2 22 10 22
23 0 20 -25 32 -38 19z"/>
<path d="M3624 3336 c-8 -21 3 -36 27 -36 15 0 20 6 17 22 -4 27 -35 37 -44
14z"/>
<path d="M1750 3177 c0 -41 59 -171 106 -232 87 -115 227 -210 340 -231 34 -6
35 -6 28 22 -3 16 -23 65 -44 109 -65 136 -201 264 -333 313 -89 33 -97 35
-97 19z m148 -89 c80 -45 200 -168 240 -248 18 -36 28 -66 23 -68 -17 -6 -116
48 -168 91 -67 55 -118 118 -154 189 -16 31 -29 60 -29 63 0 13 35 2 88 -27z"/>
<path d="M3173 3166 c-153 -57 -284 -176 -352 -320 -22 -45 -42 -94 -45 -110
-7 -28 -6 -29 27 -23 113 18 256 120 358 255 29 37 89 178 89 207 0 19 -2 19
-77 -9z m17 -51 c0 -3 -13 -32 -30 -64 -52 -105 -157 -208 -258 -256 -30 -14
-58 -25 -63 -23 -5 2 5 32 23 68 39 79 158 203 238 247 51 28 90 40 90 28z"/>
<path d="M1220 3144 c-11 -12 -10 -18 3 -31 13 -13 19 -14 31 -3 20 16 20 36
0 44 -21 8 -20 8 -34 -10z"/>
<path d="M3740 3144 c-11 -12 -10 -18 3 -32 16 -15 18 -15 34 0 13 14 14 20 3
32 -7 9 -16 16 -20 16 -4 0 -13 -7 -20 -16z"/>
<path d="M1134 2935 c-10 -24 12 -42 34 -29 24 16 21 38 -6 42 -13 2 -25 -3
-28 -13z"/>
<path d="M3822 2928 c4 -27 33 -36 42 -13 8 22 -1 35 -25 35 -15 0 -20 -6 -17
-22z"/>
<path d="M1707 2832 c-33 -37 -9 -82 43 -82 45 0 66 52 34 84 -21 21 -57 20
-77 -2z"/>
<path d="M3216 2834 c-32 -32 -11 -84 34 -84 53 0 78 50 42 83 -23 21 -56 22
-76 1z"/>
<path d="M1097 2734 c-4 -4 -7 -16 -7 -26 0 -14 6 -19 23 -16 14 2 22 10 22
23 0 20 -25 32 -38 19z"/>
<path d="M3864 2726 c-8 -21 3 -36 27 -36 15 0 20 6 17 22 -4 27 -35 37 -44
14z"/>
<path d="M1730 2645 c-97 -22 -189 -64 -257 -116 l-23 -17 38 -25 c135 -89
252 -122 409 -115 88 4 121 10 178 33 56 22 161 80 184 101 10 9 -36 45 -97
78 -136 71 -294 93 -432 61z m306 -56 c37 -11 87 -33 111 -48 l45 -28 -49 -27
c-120 -68 -262 -90 -396 -62 -83 17 -209 73 -204 91 5 18 129 73 202 89 87 19
199 14 291 -15z"/>
<path d="M2982 2640 c-105 -28 -263 -116 -241 -133 38 -31 113 -73 171 -96
193 -78 398 -53 591 71 l49 31 -68 43 c-147 93 -347 126 -502 84z m297 -42
c57 -13 174 -68 178 -83 4 -13 -80 -56 -157 -82 -41 -13 -84 -18 -165 -17
-121 1 -195 19 -281 69 l-47 28 39 23 c124 76 278 98 433 62z"/>
<path d="M1080 2515 c-15 -18 -5 -35 20 -35 10 0 22 5 25 10 7 11 -12 40 -25
40 -4 0 -13 -7 -20 -15z"/>
<path d="M3875 2510 c-4 -7 -3 -16 3 -22 14 -14 47 -6 47 12 0 18 -40 26 -50
10z"/>
<path d="M2442 2359 c-62 -76 -115 -184 -144 -291 -30 -113 -30 -288 1 -403
28 -107 91 -231 152 -296 l49 -54 45 49 c86 92 142 217 171 380 28 157 2 329
-72 481 -36 72 -126 195 -144 195 -5 0 -31 -27 -58 -61z m99 -51 c47 -63 96
-172 119 -262 52 -204 -3 -484 -123 -621 l-35 -40 -29 27 c-44 42 -100 155
-128 259 -46 173 -31 353 45 516 37 79 94 163 112 163 4 0 22 -19 39 -42z"/>
<path d="M2150 2300 c-30 -10 -77 -31 -105 -46 -71 -40 -194 -167 -231 -239
-36 -68 -69 -163 -60 -172 9 -9 125 36 181 69 127 77 223 196 279 346 27 71
24 73 -64 42z m5 -77 c-53 -127 -182 -256 -308 -308 l-39 -16 7 23 c33 104
165 253 274 306 35 18 68 32 73 32 4 0 1 -17 -7 -37z"/>
<path d="M2770 2311 c0 -17 29 -91 57 -146 57 -111 147 -202 263 -268 51 -28
149 -62 157 -54 3 3 0 23 -7 44 -35 116 -100 216 -192 298 -80 70 -278 160
-278 126z m155 -89 c75 -40 195 -164 235 -244 19 -37 31 -70 28 -73 -9 -10
-106 43 -169 91 -63 48 -124 124 -163 201 -14 29 -26 55 -26 58 0 10 40 -5 95
-33z"/>
<path d="M1096 2294 c-8 -21 1 -34 24 -34 22 0 33 23 17 39 -16 16 -34 14 -41
-5z"/>
<path d="M3860 2295 c-15 -18 -5 -35 20 -35 23 0 32 13 24 34 -8 20 -28 21
-44 1z"/>
<path d="M1150 2095 c-16 -19 -5 -47 17 -43 22 4 29 43 9 51 -8 3 -20 -1 -26
-8z"/>
<path d="M3814 2085 c-4 -9 -2 -21 4 -27 15 -15 44 -1 40 19 -4 23 -36 29 -44
8z"/>
<path d="M1231 1896 c-13 -16 -4 -46 14 -46 7 0 18 6 24 14 9 11 8 18 -4 30
-20 19 -20 19 -34 2z"/>
<path d="M3727 1886 c-7 -19 18 -40 39 -32 8 3 14 14 12 23 -4 22 -43 29 -51
9z"/>
<path d="M1334 1705 c-8 -19 3 -35 26 -35 19 0 30 17 23 38 -6 17 -42 15 -49
-3z"/>
<path d="M3616 1704 c-4 -10 -2 -22 3 -27 15 -15 46 -3 46 18 0 26 -40 33 -49
9z"/>
<path d="M1477 1537 c-8 -21 8 -39 29 -35 27 5 25 42 -2 46 -12 2 -24 -3 -27
-11z"/>
<path d="M3474 1535 c-8 -19 3 -35 26 -35 19 0 34 25 24 41 -8 14 -44 10 -50
-6z"/>
<path d="M1644 1395 c-4 -9 -2 -21 4 -27 15 -15 44 -1 40 19 -4 23 -36 29 -44
8z"/>
<path d="M3317 1404 c-4 -4 -7 -16 -7 -26 0 -14 6 -19 23 -16 14 2 22 10 22
23 0 20 -25 32 -38 19z"/>
<path d="M1843 1303 c-7 -3 -13 -13 -13 -23 0 -19 17 -30 38 -23 6 3 12 13 12
23 0 19 -17 30 -37 23z"/>
<path d="M3133 1303 c-15 -5 -17 -39 -4 -47 14 -9 41 4 41 19 0 17 -22 33 -37
28z"/>
<path d="M2047 1213 c-11 -10 -8 -41 4 -49 6 -3 18 1 27 9 13 13 13 19 2 31
-14 17 -23 20 -33 9z"/>
<path d="M2923 1213 c-19 -7 -16 -40 4 -47 21 -8 36 6 31 30 -3 19 -16 25 -35
17z"/>
<path d="M2254 1145 c-9 -22 22 -53 37 -38 15 15 7 47 -14 51 -9 2 -20 -4 -23
-13z"/>
<path d="M2702 1128 c2 -15 10 -23 23 -23 13 0 21 8 23 23 3 18 -1 22 -23 22
-22 0 -26 -4 -23 -22z"/>
<path d="M2480 1115 c0 -18 5 -25 19 -25 24 0 33 13 25 34 -10 27 -44 20 -44
-9z"/>
</g>
</svg>
